<svg xmlns="http://www.w3.org/2000/svg" viewBox="0 0 412.03 412.03">
    <title>ataque</title>
    <g id="Camada_2" data-name="Camada 2">
        <g id="Camada_2-2" data-name="Camada 2">
            <circle fill="#e2e2e2" cx="206.02" cy="206.02" r="206.02"/>
        </g>
        <g id="Camada_3" data-name="Camada 3">
            <path fill="#e2e2e2" d="M95.22,26c4.79,1.58,9.8,1,14.68,1.32a521.59,521.59,0,0,1,80,11.92c33.14,7.62,65,18.67,95.25,34.35,25.49,13.22,48.91,29.33,68.81,50.2,2.8,2.94,6,5.61,7.76,9.43-5-3-9.06-7.39-14.3-10.07-.79-.59-1.54-1.23-2.37-1.76-7.16-4.58-15.07-7.6-22.89-10.8a1.55,1.55,0,0,0-1.74-.78l0,0c-.34-1.68-1.89-2.2-3-3-20.87-15.37-43.62-27.29-67.55-37.08-5.11-2.09-5.17-2.08-7.56,3.14a267.55,267.55,0,0,0-17.06,50.42c-2.76,3-6.92,4.38-9.24,7.9-2.08.34-2.95,2.47-4.73,3.25a14,14,0,0,1,.12-2.6c5.23-22.06,11.32-43.84,21.07-64.41,1.34-2.85,1-3.89-2-4.92A480.23,480.23,0,0,0,161.14,44.8c-1.9-.34-2.61.53-3.28,2.13-2.23,5.27-4.68,10.45-6.93,15.71-7.49,17.51-14.29,35.29-20.05,53.45-.81,2.54-.8,3.84,2.39,4.22a476.47,476.47,0,0,1,50.61,9.12c8.57,2,17.25,3.65,25.53,6.76l-8.49,8.88a646.83,646.83,0,0,0-71.26-14c-1.94-.26-3.16-.44-3.83,2A344.7,344.7,0,0,0,114,207.29c-.18,3.63.85,4.58,4.46,4.55,18.68-.15,37.37,0,56,0v11.39c-18.93,0-37.85.1-56.78.05-2.5,0-4,.22-3.69,3.37.9,10.53,1.41,21.08,2.9,31.55a390.41,390.41,0,0,0,9,43.78c.4,1.54.86,2.46,2.72,2.16,8.33-1.35,16.7-2.5,25-3.92,15.93-2.71,31.63-6.49,47.33-10.25l8.49,8.89a12.26,12.26,0,0,1-1.7.76A582.34,582.34,0,0,1,134,314.75c-4.08.56-4.24.6-3,4.59,7.33,23.56,16.63,46.36,26.84,68.8.95,2.09,2,2.4,4,2,4.61-1,9.28-1.77,13.91-2.71a430.91,430.91,0,0,0,55-15c1.77-.61,3.55-.87,2.15-3.72-7.24-14.8-12.37-30.4-16.66-46.28-1.94-7.17-4.33-14.27-5-21.74,1.78.78,2.64,2.89,4.72,3.25,2.32,3.51,6.48,4.88,9.23,7.9a277.9,277.9,0,0,0,18.56,53.83c.87,1.88,1.92,1.35,3.29.81,23.08-9.18,45.11-20.38,65.45-34.7,2.78-1.95,6.1-3.36,7.92-6.52l0,0a1.35,1.35,0,0,0,1.59-.68c6.81-2.78,13.8-5.17,20-9.22,1.87-1,3.87-1.85,5.38-3.43,1.16-.72,2.3-1.46,3.47-2.15,3.48-2.08,6.19-5.27,10-6.94-4.5,6.8-10.39,12.34-16.37,17.76-39.83,36.08-87.41,57.15-138.57,71.24a481.36,481.36,0,0,1-67.7,13.2c-13.09,1.66-26.25,2.7-39.44,3.35-9.09.45-18.18.71-27.28.67-4.21,0-6.35-2-6.32-5.66s2.09-5.52,6.08-5.53c11.84,0,23.65-.63,35.47-1.34,12.56-.75,25-2.13,37.51-3.73,3-.39,2.81-1.33,1.82-3.5-7.6-16.66-14.56-33.59-20.63-50.87q-2.91-8.28-5.52-16.66c-1.62-5.21-1.54-5.25-6.93-4.65a357.68,357.68,0,0,1-41.39,2.23c-3.26,0-5.67-1-6.32-4.47-.72-3.81,1.79-6.64,6-6.77,6.1-.18,12.2-.14,18.3-.53,7.46-.47,14.9-1,22.35-1.61,2.57-.2,3.15-.86,2.48-3.38q-4.48-17-7.36-34.28a301.14,301.14,0,0,1-4.06-40.83c-.09-3.6-1.31-4.29-4.54-4.21-8.35.2-16.71.05-25.06.08a12.7,12.7,0,0,1-4.79-.66,5.54,5.54,0,0,1,.09-10.37,13,13,0,0,1,4.8-.59c8.73,0,17.46-.07,26.18.06,2.45,0,3.17-.77,3.25-3.18a341.72,341.72,0,0,1,11.34-75.5c.76-2.9.52-3.79-2.75-4.08-13.16-1.15-26.32-2.07-39.54-2.1-4.43,0-6.79-2.12-6.74-5.74s2.17-5.44,6.86-5.47A322.86,322.86,0,0,1,113,118c3.72.45,5.7-.29,6.9-4.39,6.77-23.1,15.87-45.34,25.83-67.23,1.39-3,1-3.76-2.37-4.22Q120.45,39,97.31,38c-8.21-.38-16.43-.57-24.65-.7-3,0-5.91-.16-7.14-3.48S65.79,28,68.29,26Z"/>
            <path fill="#eeecfe" d="M360.84,302.85c-3.77,1.67-6.48,4.86-10,6.94-1.17.69-2.31,1.43-3.47,2.15,0-.63-.09-1.25-.1-1.87-.12-8.85-2.06-11.51-10.59-14.35-7-2.31-13.91-4.58-20.87-6.88-3.6-11.35-7.23-22.68-10.78-34-1.14-3.66-2.82-7.17-3.31-11l14.81-20.32,47.56-.07c4.61,6.3,9.19,12.63,13.84,18.9,3.69,5,7.84,6.27,13.71,4.53,1.18-.35,2.39-.61,3.58-.91-1.9,10.26-6.38,19.47-11.46,28.45C377.71,285.11,369.36,294.05,360.84,302.85Z"/>
            <path fill="#eeecfe" d="M347.41,123.13c5.24,2.68,9.28,7.07,14.3,10.07,5.91,6.19,12,12.24,16.82,19.36,7.62,11.26,14.07,23.08,16.73,36.61a11.66,11.66,0,0,1-1.46-.21c-9-2.66-11.65-1.8-17.13,5.64l-12.54,17.1-47.56-.07L301.76,191.3c.06-2.42,1.21-4.55,1.91-6.78q6.06-19.17,12.18-38.31c7.66-2.52,15.35-5,23-7.58,5.76-1.95,8.33-5.65,8.46-11.77C347.33,125.62,347.38,124.37,347.41,123.13Z"/>
            <path fill="#6272a3" d="M364.13,211.7l12.54-17.1c5.48-7.44,8.1-8.3,17.13-5.64a11.66,11.66,0,0,0,1.46.21c2.32,4.92,2.72,10.29,3.32,15.54a108.41,108.41,0,0,1-2.43,39.18,13.13,13.13,0,0,1-.89,2c-1.19.3-2.4.56-3.58.91-5.87,1.74-10,.43-13.71-4.53-4.65-6.27-9.23-12.6-13.84-18.9A12.29,12.29,0,0,1,364.13,211.7Z"/>
            <path fill="#d3d3fe" d="M225.23,311.82c-2.75-3-6.91-4.39-9.23-7.91,10.62-3.51,11.89-5.25,11.89-16.29,0-6,0-11.95,0-17.93,0-6.76-2.34-10-8.8-12.19-4.94-1.68-10.09-2.85-14.87-4.89-8.63-3.68-15.93-3.3-21.31,5.37-2.73-3.56-3.3-8-4.59-12-2.31-7.38-2.54-15.13-3.83-22.69V211.86c.78-5.59,1.16-11.28,2.45-16.76,1.44-6.14,2-12.66,6-18,.95,1.13,1.93,2.24,2.85,3.39,3,3.82,7.14,5.27,11.66,4,8-2.29,15.91-4.94,23.74-7.76,4.39-1.57,6.66-5.11,6.69-9.83.06-8.1.08-16.19,0-24.29-.06-4.73-2.57-7.93-6.9-9.7-1.6-.66-3.28-1.15-4.92-1.72,2.32-3.52,6.48-4.89,9.24-7.9l4.29-2.23c5.27-2.71,10.24-6.07,16.1-7.52a4.68,4.68,0,0,1-.21,1.09c-8.2,17-10.58,35.41-12.51,53.9-.23,2.19.94,3.49,2.52,4.62,7.53,5.42,15.18,10.69,22.55,16.33,2.54,1.94,6,3,7.16,6.58-2.5,2.22-4.59,4.72-5.4,8.07-3.62-1.46-6.42-4.18-9.55-6.37-5.65-3.94-11.17-8.06-17.1-12.38-.37,4.22.24,7.63.46,11.08a164.27,164.27,0,0,0,8.36,41.81c1.28,3.82,1.79,3.93,5,1.58,4.19-3.06,8.09-6.54,12.81-8.83.81,3.34,2.88,5.84,5.4,8.05,0,1.27-.8,1.91-1.78,2.61-4.15,2.94-8.14,6.1-12.33,9-2.44,1.67-2.69,3.25-1.35,5.88,10.72,20.89,26.3,36.83,47.53,47.08,0,.23-.07.46-.1.69-1.57,2.05-3.07,4.15-4.72,6.12-2.87,3.42-4.17,7.24-3.12,11.65.71,3,3.14,5,4.45,7.6a112.36,112.36,0,0,1-42.2-5.45C242.23,321.11,233.85,316.25,225.23,311.82Z"/>
            <path fill="#fefefd" d="M211.28,300.67c.67,7.47,3.06,14.57,5,21.74,4.29,15.88,9.42,31.48,16.66,46.28,1.4,2.85-.38,3.11-2.15,3.72a430.91,430.91,0,0,1-55,15c-4.63.94-9.3,1.7-13.91,2.71-2,.44-3.08.13-4-2-10.21-22.44-19.51-45.24-26.84-68.8-1.24-4-1.08-4,3-4.59a582.34,582.34,0,0,0,73.73-15.11,12.26,12.26,0,0,0,1.7-.76Z"/>
            <path fill="#fefefd" d="M209.41,136.2c-8.28-3.12-17-4.79-25.53-6.77a476.47,476.47,0,0,0-50.61-9.12c-3.19-.38-3.2-1.68-2.39-4.22,5.76-18.16,12.56-35.94,20.05-53.45,2.25-5.26,4.7-10.44,6.93-15.71.67-1.6,1.38-2.47,3.28-2.13a480.23,480.23,0,0,1,69.33,17.67c3,1,3.33,2.07,2,4.92-9.75,20.57-15.84,42.35-21.07,64.41a14,14,0,0,0-.12,2.6Z"/>
            <path fill="#fefefd" d="M182.9,177.09c-3.92,5.35-4.53,11.87-6,18-1.29,5.48-1.67,11.17-2.45,16.76-18.68,0-37.37-.17-56,0-3.61,0-4.64-.92-4.46-4.55a344.7,344.7,0,0,1,11.86-74.21c.67-2.46,1.89-2.28,3.83-2a646.83,646.83,0,0,1,71.26,14c-6.48,8.62-12.62,17.45-16.8,27.47C183.51,174,182.46,175.35,182.9,177.09Z"/>
            <path fill="#fefefd" d="M174.48,223.25c1.29,7.56,1.52,15.31,3.83,22.69,1.29,4.09,1.86,8.48,4.59,12-.45,1.6.51,2.87,1.06,4.21,4.19,10.16,10.4,19.09,17,27.8-15.7,3.76-31.4,7.54-47.33,10.25-8.32,1.42-16.69,2.57-25,3.92-1.86.3-2.32-.62-2.72-2.16a390.41,390.41,0,0,1-9-43.78c-1.49-10.47-2-21-2.9-31.55-.27-3.15,1.19-3.37,3.69-3.37C136.63,223.35,155.55,223.28,174.48,223.25Z"/>
            <path fill="#fefdfd" d="M245.63,113.5c-5.86,1.45-10.83,4.81-16.1,7.52l-4.29,2.23A267.55,267.55,0,0,1,242.3,72.83c2.39-5.22,2.45-5.23,7.56-3.14,23.93,9.79,46.68,21.71,67.55,37.08,1.15.85,2.7,1.37,3,3a8.09,8.09,0,0,1-3.6-.6,109.42,109.42,0,0,0-23-3.76,112.75,112.75,0,0,0-19.35.55C264.58,107.28,254.79,109.15,245.63,113.5Z"/>
            <path fill="#fefdfd" d="M225.23,311.82c8.62,4.43,17,9.29,26.29,12.35a112.36,112.36,0,0,0,42.2,5.45l4.83-.29c7.47-.46,14.61-2.7,21.9-4.09-1.82,3.16-5.14,4.57-7.92,6.52-20.34,14.32-42.37,25.52-65.45,34.7-1.37.54-2.42,1.07-3.29-.81A277.9,277.9,0,0,1,225.23,311.82Z"/>
            <path fill="#6272a3" d="M293.9,105.46a109.42,109.42,0,0,1,23,3.76,8.09,8.09,0,0,0,3.6.6l0,0c.31.87,1.08.71,1.74.78,7.82,3.2,15.73,6.22,22.89,10.8.83.53,1.58,1.17,2.37,1.76,0,1.24-.08,2.49-.11,3.73-.13,6.12-2.7,9.82-8.46,11.77-7.64,2.59-15.33,5.06-23,7.58a12.93,12.93,0,0,1-10.33-3.55c-4.65-6.45-9.35-12.87-13.94-19.37-3.67-5.18-3.6-9.15,0-14.43C292.39,107.74,293.14,106.6,293.9,105.46Z"/>
            <path fill="#485a99" d="M200.93,290c-6.57-8.71-12.78-17.64-17-27.8-.55-1.34-1.51-2.61-1.06-4.21,5.38-8.67,12.68-9.05,21.31-5.37,4.78,2,9.93,3.21,14.87,4.89,6.46,2.21,8.75,5.43,8.8,12.19,0,6,0,12,0,17.93,0,11-1.27,12.78-11.89,16.29-2.08-.35-2.94-2.46-4.72-3.24l-1.86-1.79Z"/>
            <path fill="#485a99" d="M182.9,177.09c-.44-1.74.61-3.1,1.22-4.55,4.18-10,10.32-18.85,16.8-27.47l8.49-8.88,1.86-1.79c1.78-.78,2.65-2.91,4.73-3.25,1.64.57,3.32,1.06,4.92,1.72,4.33,1.77,6.84,5,6.9,9.7.1,8.1.08,16.19,0,24.29,0,4.72-2.3,8.26-6.69,9.83-7.83,2.82-15.74,5.47-23.74,7.76-4.52,1.3-8.62-.15-11.66-4C184.83,179.33,183.85,178.22,182.9,177.09Z"/>
            <path fill="#6272a3" d="M297.11,304.25c0-.23.07-.46.1-.69l8.3-11.17a13,13,0,0,1,10.34-3.54c7,2.29,13.92,4.56,20.87,6.87,8.53,2.84,10.47,5.5,10.59,14.35,0,.62.07,1.24.1,1.87-1.51,1.58-3.51,2.41-5.38,3.43a4.8,4.8,0,0,0-1.33-.53,132,132,0,0,1-27.56-5C307.65,308.3,302.67,305.47,297.11,304.25Z"/>
            <path fill="#485b99" d="M297.11,304.25c5.56,1.22,10.54,4.05,16,5.58a132,132,0,0,0,27.56,5,4.8,4.8,0,0,1,1.33.53c-6.23,4.05-13.22,6.44-20,9.22-.64,0-1.29-.08-1.59.68l0,0c-7.29,1.39-14.43,3.63-21.9,4.09l-4.83.29C292.41,327,290,325,289.27,322c-1-4.41.25-8.23,3.12-11.65C294,308.4,295.54,306.3,297.11,304.25Z"/>
            <path fill="#fefdfd" d="M322.15,110.57c-.66-.07-1.43.09-1.74-.78A1.55,1.55,0,0,1,322.15,110.57Z"/>
            <path fill="#fefdfd" d="M320.41,325.27c.3-.76.95-.69,1.59-.68A1.35,1.35,0,0,1,320.41,325.27Z"/>
            <path fill="#6171a3" d="M259.74,204.09c.81-3.35,2.9-5.85,5.4-8.07l26.1-8.53a13,13,0,0,1,10.52,3.81l14.81,20.33a12.46,12.46,0,0,1,0,11.81l-14.81,20.32a12.93,12.93,0,0,1-10.52,3.81L265.14,239c-2.52-2.2-4.59-4.7-5.4-8Z"/>
            <path fill="#d4d4fe" d="M316.57,223.44a12.46,12.46,0,0,0,0-11.81l47.56.07a12.29,12.29,0,0,0,0,11.67Z"/>
            <path fill="#d3d3fe" d="M291.24,247.57a12.93,12.93,0,0,0,10.52-3.81c.49,3.86,2.17,7.37,3.31,11,3.55,11.37,7.18,22.7,10.78,34a13.08,13.08,0,0,0-10.34,3.55c-1.41-4.33-2.89-8.65-4.24-13C298,268.77,293.78,258.43,291.24,247.57Z"/>
            <path fill="#d3d3fe" d="M301.76,191.3a13,13,0,0,0-10.52-3.81c1-3.55,1.94-7.13,3.07-10.64,3.69-11.41,7.47-22.79,11.21-34.19a12.93,12.93,0,0,0,10.33,3.55q-6.11,19.15-12.18,38.31C303,186.75,301.82,188.88,301.76,191.3Z"/>
            <path fill="#eeecfe" d="M305.52,142.66c-3.74,11.4-7.52,22.78-11.21,34.19-1.13,3.51-2.05,7.09-3.07,10.64L265.14,196c-1.12-3.54-4.62-4.64-7.16-6.58-7.37-5.64-15-10.91-22.55-16.33-1.58-1.13-2.75-2.43-2.52-4.62,1.93-18.49,4.31-36.86,12.51-53.9a4.68,4.68,0,0,0,.21-1.09c9.16-4.35,18.95-6.22,28.92-7.49a112.75,112.75,0,0,1,19.35-.55c-.76,1.14-1.51,2.28-2.28,3.4-3.64,5.28-3.71,9.25,0,14.43C296.17,129.79,300.87,136.21,305.52,142.66Z"/>
            <path fill="#eeecfe" d="M291.24,247.57c2.54,10.86,6.74,21.2,10,31.82,1.35,4.35,2.83,8.67,4.24,13l-8.3,11.17c-21.23-10.25-36.81-26.19-47.53-47.08-1.34-2.63-1.09-4.21,1.35-5.88,4.19-2.86,8.18-6,12.33-9,1-.7,1.76-1.34,1.78-2.61Z"/>
            <path fill="#eeecfe" d="M259.74,204.09V231c-4.72,2.29-8.62,5.77-12.81,8.83-3.23,2.35-3.74,2.24-5-1.58a164.27,164.27,0,0,1-8.36-41.81c-.22-3.45-.83-6.86-.46-11.08,5.93,4.32,11.45,8.44,17.1,12.38C253.32,199.91,256.12,202.63,259.74,204.09Z"/>
        </g>
    </g>
</svg>