<svg xmlns="http://www.w3.org/2000/svg" viewBox="0 0 412.03 412.03">

    <title>creativity</title>
    <g id="Camada_2" data-name="Camada 2">
        <g id="Camada_2-2" data-name="Camada 2">
            <circle fill="#e2e2e2" cx="206.02" cy="206.02" r="206.02"/>
        </g>
        <g id="Camada_5" data-name="Camada 5">
            <path fill="#f9d107" d="M207.06,13.07a9.29,9.29,0,0,1,3.76,8c-.1,11.45,0,22.89,0,34.34,0,4.19-2.76,7.7-6,7.7s-6-3.51-6-7.7c0-11.45,0-22.89-.05-34.34a9.29,9.29,0,0,1,3.76-8Z"/>
            <path fill="#f9d107" d="M209.22,82.13c28.19,1.29,52.18,12.12,71.81,32.26,41.12,42.19,41.11,108.43.16,152.46-1.36,1.46-2.75,2.89-4.11,4.36-8.9,9.6-15.87,20.17-16.68,33.77q-31.95,0-63.89-.05c-11,0-21.92-.13-32.88-.2a36.9,36.9,0,0,0-3.32-13.26c-4.75-10.71-13.2-18.54-20.94-26.91a100.4,100.4,0,0,1-17.78-26.06c-8.57-18.57-12.45-38-10.42-58.58a106.7,106.7,0,0,1,9.4-35,109.77,109.77,0,0,1,66.49-58.56C194.29,84,201.75,83.07,209.22,82.13Zm-11.39,167.4c5.36.51,8.53-3,11.5-6.8q13.69-17.64,27.41-35.26c7.13-9.22,14.35-18.39,21.26-27.78,4.18-5.67,2.91-12.4-2.63-16.92A12.13,12.13,0,0,0,239.14,164c-9.67,10.69-17.74,22.66-26.78,33.85-4.59,5.7-8.88,11.64-13.42,17.38-.76,1-1.71,3.13-3.46,1.2q-10.86-12-21.56-24.19c-2.94-3.34-6-6.49-10.65-7a11.76,11.76,0,0,0-12.21,6.2c-2.55,4.48-2.76,9.3.55,13.31,6,7.26,12.46,14.17,18.78,21.18,5.5,6.09,11.29,11.93,16.51,18.25C189.85,247.76,193.11,249.73,197.83,249.53Z"/>
            <path fill="#50758c" d="M163.63,304.73c11,.07,21.92.18,32.88.2q31.94.06,63.89.05.14,12.33.28,24.64c-6.21,0-12.42-.07-18.63,0-4.1,0-6.62,2.43-6.51,6,.1,3,2.79,5.14,6.58,5.16,6.21,0,12.42,0,18.63,0,0,9.41-4.08,16.59-12,21.6-.82.52-1.59,1.12-2.39,1.68A56.26,56.26,0,0,1,235,365.57c-16-.15-31.92,0-47.88-.07-10.74,0-21.33-9.47-22.64-20.16-.49-4-.08-4.52,4-4.52H213.7c1.59,0,3.24.28,4.56-1.09,1.75-1.82,2.92-3.77,1.86-6.36-1.13-2.78-3.3-3.81-6.22-3.8-15.22,0-30.43-.08-45.64.1-3.47,0-4.84-.69-4.67-4.45.31-6.72.09-13.46.1-20.19Z"/>
            <path fill="#f9a617" d="M209.22,82.13c-7.47.94-14.93,1.87-22.16,4.22a109.77,109.77,0,0,0-66.49,58.56,106.7,106.7,0,0,0-9.4,35c-2,20.59,1.85,40,10.42,58.58a100.4,100.4,0,0,0,17.78,26.06c7.74,8.37,16.19,16.2,20.94,26.91a36.9,36.9,0,0,1,3.32,13.26l.06.29-12.87-.11c-1.55-15.09-10.57-26-20.67-36.13C113.05,251.54,102.25,231,98.83,207c-4.48-31.43,2.74-60.07,22.88-84.95,16-19.82,36.48-32.78,61.55-38.16A90.18,90.18,0,0,1,209.22,82.13Z"/>
            <path fill="#2c5a7f" d="M150.82,304.91l12.87.11c0,6.73.21,13.47-.1,20.19-.17,3.76,1.2,4.49,4.67,4.45,15.21-.18,30.42-.06,45.64-.1,2.92,0,5.09,1,6.22,3.8,1.06,2.59-.11,4.54-1.86,6.36-1.32,1.37-3,1.09-4.56,1.09H168.44c-4.09,0-4.5.48-4,4.52,1.31,10.69,11.9,20.14,22.64,20.16,16,0,31.92-.08,47.88.07a56.26,56.26,0,0,0,11.39-1.52c.14,4.23.73,8.47-.52,12.64-5,.61-10,1.63-15.1,1.58-16.54-.18-33.08-.07-49.62-.06-4.24,0-5,1.25-3.23,5.17a26.07,26.07,0,0,0,1.7,2.87c3.27,5.24,8.56,7.63,14,9.82-5.5.37-10.92.32-15.92-2.52-8.07-4.58-11.89-11.65-12.22-20.77a16.47,16.47,0,0,1,0-3c.65-4.07-.75-6.64-4.42-9-6.33-4-9.64-10.5-9.88-17.9C150.69,330.27,150.89,317.59,150.82,304.91Z"/>
            <path fill="#50758d" d="M193.55,396.07c-5.42-2.19-10.71-4.58-14-9.82a26.07,26.07,0,0,1-1.7-2.87c-1.8-3.92-1-5.17,3.23-5.17,16.54,0,33.08-.12,49.62.06,5.14.05,10.08-1,15.1-1.58A22.08,22.08,0,0,1,225,396.07C214.49,396.36,204,396.09,193.55,396.07Z"/>
            <path fill="#f9d107" d="M69.37,331.69a6.41,6.41,0,0,1,2.16-4.6c8.46-8.44,16.85-16.95,25.38-25.33,4.37-4.28,8.66-3.71,10.75,1.05a4.72,4.72,0,0,1-1,5.48q-13.86,14.13-28,28c-1.64,1.61-3.89,1.84-6.2.53A5.48,5.48,0,0,1,69.37,331.69Z"/>
            <path fill="#f9d107" d="M307.62,298.9a4,4,0,0,1,3.2,1.38c9.72,8.91,19.13,18.17,27.92,28,3.15,3.5,1.59,7.56-2.8,9.05-2.27.78-4.13-.12-5.7-1.68q-13.5-13.44-26.94-26.94c-1.84-1.85-2.43-3.87-1.12-6.41A5.53,5.53,0,0,1,307.62,298.9Z"/>
            <path fill="#f9d107" d="M102.35,105.09c-1.84.33-3.22-.5-4.55-1.83C89.12,94.5,80.36,85.82,71.68,77.07c-3-3-3.05-5.83-.53-8.53,2.26-2.41,5.86-2.44,8.64.3q13,12.84,25.87,25.92c1.77,1.81,3.5,4.06,2,7C106.58,103.9,105.09,105.44,102.35,105.09Z"/>
            <path fill="#f9d107" d="M307.75,105.12c-5.11,0-7.55-4-5.32-8.15a12.81,12.81,0,0,1,2.22-3q12.24-12.33,24.56-24.58c2.9-2.88,6.31-3.41,8.66-1.49,2.88,2.36,3.33,5.78.66,8.49-9.07,9.25-18.29,18.35-27.43,27.53A3.94,3.94,0,0,1,307.75,105.12Z"/>
            <path fill="#f9d107" d="M40.18,207.63c-6.22,0-12.44,0-18.67,0-3.13,0-6-2.26-5.88-5,.12-2.87,1.35-5.3,4.57-6a11,11,0,0,1,2.21-.28q18.48,0,37,0a5.77,5.77,0,0,1,6,4.12c.84,2.43-.29,4.31-2,6-1.09,1.1-2.41,1.13-3.8,1.13Z"/>
            <path fill="#f9d107" d="M369,207.64c-6.23,0-12.45,0-18.68,0-3.59,0-6.15-2.26-6.27-5.41s2.39-5.77,6-5.79q18.67-.12,37.34,0c4,0,6.77,2.62,6.73,6,0,3.07-2.83,5.23-6.82,5.23Z"/>
            <path fill="#2b597f" d="M260.75,340.77c-6.21,0-12.42.07-18.63,0-3.79,0-6.48-2.2-6.58-5.16-.11-3.61,2.41-6,6.51-6,6.21-.05,12.42,0,18.63,0C260.7,333.34,260.73,337.06,260.75,340.77Z"/>
            <path fill="#f9a515" d="M197.83,249.53c-4.72.2-8-1.77-10.93-5.35-5.22-6.32-11-12.16-16.51-18.25-6.32-7-12.76-13.92-18.78-21.18-3.31-4-3.1-8.83-.55-13.31a11.76,11.76,0,0,1,12.21-6.2c4.61.49,7.71,3.64,10.65,7q10.68,12.18,21.56,24.19c1.75,1.93,2.7-.23,3.46-1.2,4.54-5.74,8.83-11.68,13.42-17.38,9-11.19,17.11-23.16,26.78-33.85a12.13,12.13,0,0,1,16.23-1.21c5.54,4.52,6.81,11.25,2.63,16.92-6.91,9.39-14.13,18.56-21.26,27.78q-13.67,17.66-27.41,35.26C206.36,246.56,203.19,250,197.83,249.53Z"/>
        </g>
    </g>
</svg>