<svg xmlns="http://www.w3.org/2000/svg" viewBox="0 0 412.03 412.03">

    <title>defesa</title>
    <g id="Camada_2" data-name="Camada 2">
        <g id="Camada_2-2" data-name="Camada 2">
            <circle fill="#e2e2e2" cx="206.02" cy="206.02" r="206.02"/>
        </g>
        <g id="Camada_4" data-name="Camada 4">
            <path fill="#bc7b50" d="M395.81,347.1c-27.38,0-54.75-.12-82.13-.05-3.41,0-4.84-.37-5-4.49-.5-12.57,0-25.12-.26-37.68,0-1.87-.11-3.73-.16-5.6q0-23.8,0-47.61,0-36.49,0-73V131c.05-19.08.22-38.16.07-57.23,0-4.59,1.44-7.49,5.29-10.14C325.91,55.14,338,46.31,350,37.43c2.15-1.6,3.42-1.44,5.43,0,13,9.61,26.1,19.11,39.18,28.62a12.34,12.34,0,0,0,2,1V347Z"/>
            <path fill="#f9f3ef" d="M395.81,347.1l.74-.14v.74Z"/>
            <path fill="#eac488" d="M101.74,299.3c0,14.59-.1,29.18.05,43.77,0,3.14-.93,4-4,4q-40.22-.18-80.43,0c-3.11,0-4-.88-4-4q.12-136.17,0-272.34a5.62,5.62,0,0,1,2.65-5.21c13.05-9.3,26-18.75,39-28.16,1.57-1.13,2.67-1.67,4.76-.11,12.67,9.4,25.53,18.53,38.38,27.68a8.08,8.08,0,0,1,3.61,7.28c-.07,19.57,0,39.15,0,58.73q0,23.9-.05,47.79,0,36.48,0,72.94Q101.73,275.49,101.74,299.3Z"/>
            <path fill="#bc7b50" d="M204.86,36.34c3.61.52,5.79,3.42,8.5,5.32,11.29,7.9,22.32,16.18,33.57,24.14,2,1.42,2.18,3,2.17,5.06q0,30.06.06,60.1v47.73q0,36.48,0,73,0,23.82,0,47.64c0,14.81-.09,29.61,0,44.42,0,2.25-.36,3.36-3,3.33-13.68-.14-27.37-.1-41.05-.13,0-1.62-.05-3.24-.05-4.86q0-150.42,0-300.86C205,39.57,204.91,38,204.86,36.34Z"/>
            <path fill="#eac488" d="M204.86,36.34c0,1.61.14,3.23.14,4.85q0,150.44,0,300.86c0,1.62,0,3.24.05,4.86-13.58,0-27.16-.05-40.74.11-2.91,0-3.52-1-3.5-3.68.11-14.7.06-29.4.06-44.1V251.73q0-36.53,0-73.06L160.81,131c0-20,.08-40,0-60a5.88,5.88,0,0,1,2.79-5.5c12.72-9,25.32-18.24,37.95-27.4A8.4,8.4,0,0,1,204.86,36.34Z"/>
            <path fill="#c8875b" d="M160.81,131l.06,47.72-59.13,0q0-23.9.05-47.79Z"/>
            <path fill="#9f5f4b" d="M249.16,178.69V131h59.1v47.71Z"/>
            <path fill="#c8875b" d="M160.88,251.73v47.51l-59.14.06q0-23.82,0-47.65Z"/>
            <path fill="#9f5f4b" d="M249.17,299.29q0-23.82,0-47.64l59.06,0q0,23.81,0,47.61Z"/>
        </g>
    </g>
</svg>