<svg xmlns="http://www.w3.org/2000/svg" viewBox="0 0 412.03 425.81"><defs><style>.cls-1{fill:#e2e2e2;}.cls-2{fill:#febd87;}.cls-3{fill:#fdd1a3;}.cls-4{fill:#febd86;}.cls-5{fill:#fdd1a4;}.cls-6{fill:#fdd2a4;}.cls-7{fill:#fefefe;}</style></defs><title>foot</title><g id="Camada_2" data-name="Camada 2"><g id="Camada_2-2" data-name="Camada 2"><circle class="cls-1" cx="206.02" cy="219.8" r="206.02"/></g><g id="Camada_9" data-name="Camada 9"><path class="cls-2" d="M152.5,1.44,154.15,0h8.23c8.56,4.09,13.91,10.8,15.23,20.17,1.62,11.58.51,22.71-8.33,31.56-4.77,4.78-10.44,7.12-17.3,5,.21-1.63,1.77-1.93,2.8-2.71a24.07,24.07,0,0,0,6.2-6.33c5.54-8.94,6.78-18.61,4.53-28.76C163.8,11.16,160.11,4.81,152.5,1.44Z"/><path class="cls-2" d="M247,.84l.68-.84h8.23c11.78,5.42,16.59,15.2,17.26,27.58v4.71a28.82,28.82,0,0,1-7.75,19.63c-4.53,4.83-10.23,6.89-16.91,4.75,1.56-2.79,4.91-3.62,6.67-6.21,7.06-10.33,8.13-21.47,4.47-33.23C257.47,10.23,252.94,5,247,.84Z"/><path class="cls-3" d="M98.65,381.73a44.85,44.85,0,0,1-35.14-38c-1.14-8.21-.54-16.41-.66-24.61s.23-16.71-.05-25c-.66-20-3.28-39.75-9.41-59-4.86-15.24-10-30.37-12.65-46.3C36.66,163.9,42.29,142.05,59.06,123c15.67-17.75,34.47-30.69,57-38.09,3.17-1,6.47-1.73,9.7-2.58a4.82,4.82,0,0,0,2.54,1.44A36.68,36.68,0,0,1,145.4,96.62c13.31,18.06,15.19,42.39,2,61.68-8.54,12.51-17.29,24.88-25.22,37.8-11.17,18.22-17.28,37.59-15.38,59.36a78.42,78.42,0,0,0,12.89,36.75c9.62,14.76,16.51,30.18,13.57,48.59-2.08,13-7.81,23.61-18.07,31.9C110.21,376.75,104.31,379,98.65,381.73Z"/><path class="cls-3" d="M291.14,382.19c-14.7-4-26.23-12.23-32.88-26.05-7.49-15.56-7-31.51-.36-47.32,3.6-8.54,9.2-15.95,13.69-24A71.78,71.78,0,0,0,279.88,258c3.26-27.12-6.57-50.23-21.56-71.87-7.23-10.44-14.43-20.91-21.13-31.69-14.3-23-4.84-57.86,18.53-69.35a30.24,30.24,0,0,1,7.73-2.66c2.07,1.54,4.66,1.56,7,2.34a127.23,127.23,0,0,1,57.73,38.76c12.93,15.22,20.27,32.32,19.14,52.75a147.38,147.38,0,0,1-8.65,42.46A240,240,0,0,0,324,299.48c-.13,14.92,1.38,29.93-.81,44.75-2.44,16.55-11.56,28.44-27.11,35.15C294.32,380.12,292.07,380.05,291.14,382.19Z"/><path class="cls-4" d="M291.14,382.19c.93-2.14,3.18-2.07,4.89-2.81,15.55-6.71,24.67-18.6,27.11-35.15,2.19-14.82.68-29.83.81-44.75a240,240,0,0,1,14.7-80.79,147.38,147.38,0,0,0,8.65-42.46c1.13-20.43-6.21-37.53-19.14-52.75a127.23,127.23,0,0,0-57.73-38.76c-2.32-.78-4.91-.8-7-2.34,8.27-2.62,16.45-1.54,24.56.7q44.57,12.28,70.91,50.3a66.23,66.23,0,0,1,12,42.32c-1,16.43-4.92,32.34-10.55,47.84a214.66,214.66,0,0,0-11.8,52.91c-1.62,16.89-1.32,33.76-.87,50.68.36,13.81-1,27.46-10.45,38.74-11.58,13.9-26.46,19.1-44.23,16.55C292.38,382.33,291.76,382.27,291.14,382.19Z"/><path class="cls-4" d="M98.65,381.73c5.66-2.75,11.56-5,16.57-9,10.26-8.29,16-18.86,18.07-31.9,2.94-18.41-3.95-33.83-13.57-48.59a78.42,78.42,0,0,1-12.89-36.75c-1.9-21.77,4.21-41.14,15.38-59.36,7.93-12.92,16.68-25.29,25.22-37.8,13.16-19.29,11.28-43.62-2-61.68A36.68,36.68,0,0,0,128.29,83.8a4.82,4.82,0,0,1-2.54-1.44c20.66-5.37,41.84,4.76,50.16,27.4,7,19,3.91,36.22-7.75,52.53-9.19,12.84-18.28,25.81-26.06,39.59a96.71,96.71,0,0,0-12,37.72c-2.34,21.78,4.3,40.83,16.44,58.57a60.25,60.25,0,0,1,10.59,38.13C155.63,364.92,131,385.55,104.38,383A14.11,14.11,0,0,1,98.65,381.73Z"/><path class="cls-5" d="M247,.84c5.94,4.14,10.47,9.39,12.65,16.39,3.66,11.76,2.59,22.9-4.47,33.23-1.76,2.59-5.11,3.42-6.67,6.21-11.06-4.67-15.29-14-16.44-25-.93-9,.55-17.54,6.55-24.86A20.4,20.4,0,0,1,247,.84Z"/><path class="cls-5" d="M152.5,1.44c7.61,3.37,11.3,9.72,13,17.44,2.25,10.15,1,19.82-4.53,28.76a24.07,24.07,0,0,1-6.2,6.33c-1,.78-2.59,1.08-2.8,2.71-8.2-3.62-12.4-10.29-14.28-18.72-.37-1.67-.43-3.42-1.42-4.92,0-1.82,0-3.64,0-5.47,1.33-3.68,1.32-7.69,2.86-11.33C141.88,9.75,145.28,3.88,152.5,1.44Z"/><path class="cls-5" d="M59.84,78.6c-2.19-.66-3.3-2.83-5.27-3.8l-2.92-6.58c-1.1-5.76-1.35-11.48.76-17.09,1.6-4.23,3.8-8,8.08-10.1,6.88,5.47,8.66,12.62,7.86,21.15C67.71,69,64.38,74,59.84,78.6Z"/><path class="cls-5" d="M273.17,32.29V27.58c1.5-4.25,2.25-8.86,5.82-12.11.9-.81,1.58-2,3-2s2.22,1,3.07,1.87c6.23,6.53,6.86,14.49,5.63,22.83-.74,5-3.74,9-7,12.63-6.25-3.38-8.78-9.07-9.76-15.72C273.74,34.1,274.14,33,273.17,32.29Z"/><path class="cls-5" d="M87.34,63.64c-4-1.34-5-5.26-7.2-8.18-.77-2.53-1.53-5.07-2.3-7.61,1.42-1.88,1-4.21,1.39-6.31,1.27-6.45,3.84-11.94,9.84-15.29a2.59,2.59,0,0,0,.9,2c8,7.46,7.85,16.59,5,26C93.74,58.21,91.83,62.1,87.34,63.64Z"/><path class="cls-5" d="M115.75,50.2c-3.75-1.58-5.29-5.08-7.19-8.27A20.18,20.18,0,0,1,107,34.67c-.26-8.86,1.94-16.62,9.77-21.86A18.58,18.58,0,0,0,119,15.29C127.93,22.44,126.87,43.72,115.75,50.2Z"/><path class="cls-5" d="M303.1,35.12c2.2-3,3.38-6.83,7.34-8.21,9.92,6.36,11.79,22.79,5.45,32.39-1.19,1.8-2.09,4.06-4.74,4.33-5.27-2.51-7.5-7.24-8.69-12.48a27.66,27.66,0,0,1-.89-8.76A21.87,21.87,0,0,1,303.1,35.12Z"/><path class="cls-6" d="M364.34,101c-5.52-2.71-7.62-7.69-8.93-13.26-1-4.43-.67-8.81,0-13.21l2.94-6.47a1.27,1.27,0,0,0,.77-1.53l0,0c1.94.18,2.49-2.27,4.32-2.3C374.87,71,376.35,93.76,364.34,101Z"/><path class="cls-5" d="M34.31,101.05c-2.89-.87-4.23-3.36-5.61-5.66-5.15-8.55-3.51-22.24,3.37-29,.87-.86,1.62-1.93,3-2a9.54,9.54,0,0,1,4.34,3.34C45.8,76.36,45.38,94.46,34.31,101.05Z"/><path class="cls-5" d="M331.41,48.67c2.2-3,4.22-6.23,7.6-8.16a2.13,2.13,0,0,0,.92,1.51c6,5.26,7.56,12.19,7.5,19.78-.05,6.76-2.92,12.18-7.7,16.75-7-3.68-8.94-10.2-9.77-17.36-.19-1.67.65-3.5-.68-5Z"/><path class="cls-2" d="M364.34,101c12-7.28,10.53-30-.88-36.75,3.65-2.89,8.32-2.89,12.32,0,10.78,7.76,11.73,27.28,1.74,36C373.39,103.88,368.52,104.16,364.34,101Z"/><path class="cls-2" d="M303.1,35.12a21.87,21.87,0,0,0-1.53,7.27c-2,3-3.75,6.2-7,8.11-3.58,2.11-7.25,2.44-11,.27,3.3-3.68,6.3-7.58,7-12.63,1.23-8.34.6-16.3-5.63-22.83-.85-.89-1.65-1.9-3.07-1.87,4.91-3.92,11.76-2.53,16.2,3.32C302.32,22.21,303.38,28.49,303.1,35.12Z"/><path class="cls-2" d="M339.73,78.55c4.78-4.57,7.65-10,7.7-16.75.06-7.59-1.5-14.52-7.5-19.78a2.13,2.13,0,0,1-.92-1.51c7.92-4.59,15.72,2.77,18.63,10,2.1,5.23,1.43,10.69,1.5,16.09l0,0c-.74.26-.68.93-.77,1.53l-2.94,6.47C348.62,80.81,345.64,81.57,339.73,78.55Z"/><path class="cls-2" d="M331.41,48.67l-2.13,7.51c-2.67,6.49-7.52,10-13.3,9.65-1.89-.12-3.65-.52-4.83-2.2,2.65-.27,3.55-2.53,4.74-4.33,6.34-9.6,4.47-26-5.45-32.39,4.81-3.06,9.42-2.63,13.78,1.44C330.11,33.86,331.51,41,331.41,48.67Z"/><path class="cls-2" d="M107,34.67a20.18,20.18,0,0,0,1.54,7.26c0,6.77-1,13.26-5.39,18.79C99,65.86,90.7,67.89,87.34,63.64c4.49-1.54,6.4-5.43,7.61-9.39,2.87-9.45,3-18.58-5-26a2.59,2.59,0,0,1-.9-2c5.85-3.55,12.27.39,15.44,4.78C105.37,32.23,106.19,33.45,107,34.67Z"/><path class="cls-2" d="M34.31,101.05c11.07-6.59,11.49-24.69,5.11-33.39a9.54,9.54,0,0,0-4.34-3.34c4-3.15,8.73-3,13.08.62,1.24,1,2.33,2.18,3.49,3.28l2.92,6.58c1.75,9.36.89,18.07-6.54,25C43.56,103.9,38.55,104.26,34.31,101.05Z"/><path class="cls-2" d="M77.84,47.85c.77,2.54,1.53,5.08,2.3,7.61.19,6.38,0,12.66-4,18.14-4.45,6.16-10.78,8.13-16.33,5C64.38,74,67.71,69,68.35,62.18c.8-8.53-1-15.68-7.86-21.15,4.57-3,9.88-2.34,14.05,1.95A11.43,11.43,0,0,1,77.84,47.85Z"/><path class="cls-2" d="M115.75,50.2c11.12-6.48,12.18-27.76,3.23-34.91a18.58,18.58,0,0,1-2.19-2.48c6-3.14,11.93-1.49,16,4.68,2,3,3.5,6.31,3.43,10.08,0,1.83,0,3.65,0,5.47-.38,9.7-5.08,16.7-12.54,18.78A8.21,8.21,0,0,1,115.75,50.2Z"/><path class="cls-7" d="M358.39,68.1c.09-.6,0-1.27.77-1.53A1.27,1.27,0,0,1,358.39,68.1Z"/></g></g></svg>