<svg xmlns="http://www.w3.org/2000/svg" viewBox="0 0 412.03 446.62">

    <title>altura</title>
    <g id="Camada_2" data-name="Camada 2">
        <g id="Camada_2-2" data-name="Camada 2">
            <circle fill="#e2e2e2" cx="206.02" cy="240.6" r="206.02"/>
        </g>
        <g id="Camada_7" data-name="Camada 7">
            <path fill="#e2e2e2" d="M259.15,251.47a93.21,93.21,0,0,1,0,15.13l-1.52,0c-1.21-1.24-2.84-.78-4.3-.79q-11.46-.06-22.9,0c-1.46,0-3.09-.47-4.3.78-4.09,1-7.48,2.63-7.41,7.05,0,3.85,2.09,6.46,6.48,7.26,1.21,1.26,2.84.79,4.3.79q11.92.06,23.84,0c1.47,0,3.09.44,4.31-.78l1.49,0a91,91,0,0,1,0,15.13c-4.6,0-9.2-.18-13.79,0-4,.17-8.28.51-9.71,4.76-1.35,4,.11,7.34,4.35,9.43,6.26,1.77,12.66.53,19,.69a71.14,71.14,0,0,1,.15,15.23l-1.48,0c-.92-1-2.2-.8-3.4-.8H227.65c-1.19,0-2.48-.23-3.38.81-5.29,2.61-6.92,5.85-4.85,9.72,1.85,3.47,5.23,4.53,9.16,4.54,10.2,0,20.39,0,30.59,0a95.53,95.53,0,0,1,0,15.13l-1.5,0a32,32,0,0,0-15.74,0c-4.43.82-6.63,3.24-6.55,7.35.09,3.94,2.35,6.18,6.54,7a32.13,32.13,0,0,0,15.77,0l1.48,0a94.23,94.23,0,0,1,0,15.12c-10.35,0-20.69-.08-31,0-4.89,0-8.68,2.56-9.33,6.07-.76,4.05,1.36,6.68,5.44,8.17,1.22,1.27,2.86.8,4.34.8,9.7,0,19.4,0,29.09,0l1.42,0c.08,4.88.41,9.76.2,14.63-.32,7.6-5.22,12.18-12.8,14.76h-89c-10-3.33-13-10-13-19.34q.27-196.35.13-392.69C144.57,8,148.79,2.47,157.34.5a25.18,25.18,0,0,1,5.5-.47Q202,0,241.19,0c10.75,0,17.28,5.18,18.07,14.76.4,4.84-.09,9.75-.17,14.63l-1.42,0c-9.69,0-19.39,0-29.09,0-1.48,0-3.12-.46-4.34.8-5.28,2.63-6.9,5.87-4.81,9.74,1.86,3.46,5.24,4.52,9.16,4.52,10.2,0,20.39,0,30.58,0a94.35,94.35,0,0,1,0,15.13l-1.48,0a32.13,32.13,0,0,0-15.77,0c-4.19.77-6.45,3-6.53,6.94-.09,4.11,2.11,6.54,6.54,7.36a31.89,31.89,0,0,0,15.74,0l1.5,0a95.66,95.66,0,0,1,0,15.14c-10.35,0-20.7-.09-31.06,0-4.89,0-8.67,2.56-9.32,6.08-.74,4,1.39,6.68,5.48,8.16,1,1.16,2.52.8,3.84.8q12.84,0,25.68,0c1.33,0,2.79.32,3.86-.79l1.49,0a84.13,84.13,0,0,1,0,15.14h-.46c-6.21.36-12.51-1.06-18.64.79-4.24,2.09-5.7,5.39-4.35,9.42,1.43,4.25,5.72,4.6,9.71,4.77,4.59.19,9.19,0,13.79,0a88.77,88.77,0,0,1,0,15.12l-1.47,0c-1.07-1.13-2.53-.79-3.86-.8q-12.37,0-24.76,0c-1.33,0-2.8-.35-3.85.81-4.34.81-6.56,3.19-6.51,7.24.06,4.43,3.35,6.1,7.45,7.07,1.21,1.24,2.84.77,4.31.78q11.43.06,22.88,0c1.46,0,3.09.45,4.3-.79l1.54,0a93.21,93.21,0,0,1,0,15.13l-1.53-.05a28.22,28.22,0,0,0-14.79,0c-3.7.91-7,2.06-7.51,6.27s1.64,6.58,5.65,8a35.71,35.71,0,0,0,16.67,0l1.51,0a85,85,0,0,1,0,15.13,4.18,4.18,0,0,1-.5,0c-10.18,0-20.35-.06-30.52,0-1.35,0-2.82-.33-3.88.82-3.77.94-5.47,3.42-5.47,6.71s1.7,5.77,5.47,6.7c1.21,1.26,2.85.82,4.33.82,9.7,0,19.4,0,29.1,0h1.47a85,85,0,0,1,0,15.13l-1.49,0a35.62,35.62,0,0,0-16.68,0c-4,1.46-6.18,3.85-5.65,8s3.82,5.35,7.51,6.26a28.49,28.49,0,0,0,14.78,0ZM173.24,15c-6.61,0-12,4.85-12.08,10.79C161.08,32,166.59,37,173.4,36.91s12.09-5,12-11.28C185.3,19.61,180,15,173.24,15Z"/>
            <path fill="#3570a0" d="M257.65,148.35l1.47,0a82.58,82.58,0,0,1,0,14.24l-1.54,0H226.12c-4.1-1-7.39-2.64-7.45-7.07,0-4,2.17-6.43,6.51-7.24Z"/>
            <path fill="#3570a0" d="M224.24,399.05c-4.08-1.49-6.2-4.12-5.44-8.17.65-3.51,4.44-6,9.33-6.07,10.35-.08,20.69,0,31,0a89.56,89.56,0,0,1-.08,15l-1.42,0c-1.23-1.22-2.86-.79-4.34-.79C243.63,399,233.94,399.05,224.24,399.05Z"/>
            <path fill="#3570a0" d="M257.67,29.36l1.42,0a89.45,89.45,0,0,1,.08,15c-10.19,0-20.38.05-30.58,0-3.92,0-7.3-1.06-9.16-4.52-2.09-3.87-.47-7.11,4.81-9.74,9.7,0,19.39,0,29.09,0C254.81,30.15,256.44,30.59,257.67,29.36Z"/>
            <path fill="#3570a0" d="M259.13,280.83l-1.49,0H225.19c-4.39-.8-6.43-3.41-6.48-7.26-.07-4.42,3.32-6.09,7.41-7.05h31.5l1.52,0A82.47,82.47,0,0,1,259.13,280.83Z"/>
            <path fill="#3570a0" d="M259.14,103.12l-1.49,0-33.38,0c-4.09-1.48-6.22-4.11-5.48-8.16.65-3.52,4.43-6,9.32-6.08,10.36-.09,20.71,0,31.06,0A90,90,0,0,1,259.14,103.12Z"/>
            <path fill="#3570a0" d="M259.17,340.32c-10.2,0-20.39,0-30.59,0-3.93,0-7.31-1.07-9.16-4.54-2.07-3.87-.44-7.11,4.85-9.72h33.39l1.48,0A90.14,90.14,0,0,1,259.17,340.32Z"/>
            <path fill="#3570a0" d="M258.61,207.13a4.18,4.18,0,0,0,.5,0,84.44,84.44,0,0,1,0,15h-1.47c-1.39-1.32-3.19-.77-4.81-.78-9.54-.05-19.08,0-28.62,0-3.77-.93-5.47-3.42-5.47-6.7s1.7-5.77,5.47-6.71c9.85,0,19.7,0,29.56,0C255.4,207.87,257.19,208.37,258.61,207.13Z"/>
            <path fill="#3570a0" d="M257.65,59.5l1.48,0a81.48,81.48,0,0,1,0,14.23l-1.5,0H241.89c-4.43-.82-6.63-3.25-6.54-7.36.08-3.93,2.34-6.17,6.53-6.94Z"/>
            <path fill="#3570a0" d="M241.88,369.72c-4.19-.77-6.45-3-6.54-7-.08-4.11,2.12-6.53,6.55-7.35h15.74l1.5,0a80.51,80.51,0,0,1,0,14.23l-1.48,0C252.39,369.71,247.13,369.72,241.88,369.72Z"/>
            <path fill="#3570a0" d="M258.64,118.26h.46a87.37,87.37,0,0,1,0,15c-4.6,0-9.2.17-13.79,0-4-.17-8.28-.52-9.71-4.77-1.35-4,.11-7.33,4.35-9.42C246.2,118.56,252.5,120,258.64,118.26Z"/>
            <path fill="#3570a0" d="M242.82,251.52c-3.69-.91-7-2.06-7.51-6.26s1.63-6.59,5.65-8h16.68l1.49,0a84.52,84.52,0,0,1,0,14.23l-1.55.05Z"/>
            <path fill="#3570a0" d="M257.61,177.7l1.53.05a83.48,83.48,0,0,1,0,14.23l-1.51,0H241c-4-1.46-6.18-3.84-5.65-8s3.81-5.36,7.5-6.27Z"/>
            <path fill="#3570a0" d="M240,310.17c-4.24-2.09-5.7-5.39-4.35-9.43,1.43-4.25,5.72-4.59,9.71-4.76,4.59-.2,9.19,0,13.79,0a65.25,65.25,0,0,1-.27,14.38Z"/>
            <path fill="#3570a0" d="M240,310.17l18.88.17a4.82,4.82,0,0,1,.11.52C252.66,310.7,246.26,311.94,240,310.17Z"/>
            <path fill="#fefefc" d="M173.24,15c6.76,0,12.06,4.61,12.15,10.63.1,6.24-5.22,11.24-12,11.28s-12.32-5-12.24-11.12C161.23,19.85,166.63,15,173.24,15Z"/>
            <path fill="#3570a0" d="M258.61,207.13c-1.42,1.24-3.21.74-4.84.75-9.86,0-19.71,0-29.56,0,1.06-1.15,2.53-.82,3.88-.82C238.26,207.07,248.43,207.11,258.61,207.13Z"/>
            <path fill="#3570a0" d="M224.21,221.31c9.54,0,19.08,0,28.62,0,1.62,0,3.42-.54,4.81.78-9.7,0-19.4,0-29.1,0C227.06,222.13,225.42,222.57,224.21,221.31Z"/>
            <path fill="#3570a0" d="M257.66,326.07H224.27c.9-1,2.19-.81,3.38-.81h26.61C255.46,325.27,256.74,325.07,257.66,326.07Z"/>
            <path fill="#3570a0" d="M224.27,103.14l33.38,0c-1.07,1.11-2.53.78-3.86.79q-12.84,0-25.68,0C226.79,103.94,225.32,104.3,224.27,103.14Z"/>
            <path fill="#3570a0" d="M257.67,29.36c-1.23,1.23-2.86.79-4.34.8-9.7,0-19.39,0-29.09,0,1.22-1.26,2.86-.79,4.34-.8C238.28,29.33,248,29.36,257.67,29.36Z"/>
            <path fill="#3570a0" d="M224.24,399.05c9.7,0,19.39,0,29.09,0,1.48,0,3.11-.43,4.34.79-9.69,0-19.39,0-29.09,0C227.1,399.85,225.46,400.32,224.24,399.05Z"/>
            <path fill="#3570a0" d="M257.65,148.35H225.18c1-1.16,2.52-.8,3.85-.81q12.38,0,24.76,0C255.12,147.56,256.58,147.22,257.65,148.35Z"/>
            <path fill="#3570a0" d="M225.19,280.86h32.45c-1.22,1.22-2.84.78-4.31.78q-11.93.06-23.84,0C228,281.65,226.4,282.12,225.19,280.86Z"/>
            <path fill="#3570a0" d="M226.12,162.67h31.49c-1.21,1.24-2.84.78-4.3.79q-11.44.06-22.88,0C229,163.44,227.33,163.91,226.12,162.67Z"/>
            <path fill="#3570a0" d="M257.62,266.56h-31.5c1.21-1.25,2.84-.77,4.3-.78q11.45-.06,22.9,0C254.78,265.78,256.41,265.32,257.62,266.56Z"/>
            <path fill="#3570a0" d="M258.64,118.26c-6.14,1.77-12.44.3-18.64.79C246.13,117.2,252.43,118.62,258.64,118.26Z"/>
            <path fill="#3570a0" d="M241,192h16.67A35.71,35.71,0,0,1,241,192Z"/>
            <path fill="#3570a0" d="M257.64,237.2H241A35.62,35.62,0,0,1,257.64,237.2Z"/>
            <path fill="#3570a0" d="M257.63,355.42H241.89A32,32,0,0,1,257.63,355.42Z"/>
            <path fill="#3570a0" d="M241.89,73.8h15.74A31.89,31.89,0,0,1,241.89,73.8Z"/>
            <path fill="#3570a0" d="M241.88,369.72c5.25,0,10.51,0,15.77,0A32.13,32.13,0,0,1,241.88,369.72Z"/>
            <path fill="#3570a0" d="M257.65,59.5H241.88A32.13,32.13,0,0,1,257.65,59.5Z"/>
            <path fill="#3570a0" d="M257.61,177.7h-14.8A28.25,28.25,0,0,1,257.61,177.7Z"/>
            <path fill="#3570a0" d="M242.82,251.52H257.6A28.49,28.49,0,0,1,242.82,251.52Z"/>
        </g>
    </g>
</svg>