<svg xmlns="http://www.w3.org/2000/svg"
    xmlns:xlink="http://www.w3.org/1999/xlink" viewBox="0 0 366.84 383.2">
    <defs>
        <clipPath id="clip-path" transform="translate(-8.97 -0.02)">
            <rect fill="none" width="384" height="384"/>
        </clipPath>
    </defs>
    <title>posicao-campo</title>
    <g id="Camada_2" data-name="Camada 2">
        <g id="Camada_1-2" data-name="Camada 1">
            <g clip-path="url(#clip-path)">
                <path fill="#92c257" d="M357.34,279.2c-4.66,11.1-11.14,21.13-18.37,30.65q-38,50-98.51,66.91c-1.31.36-2.68.48-4,.71-8.48-18.6-31.24-30.35-51.4-26.85-11.9,2.07-21.71,7.67-30,16.26-2.87-5.07-6.27-9.82-8.72-15.14-4.91-10.68-7.4-21.87-6.13-33.56,1.35-12.51,6.56-23.51,14.78-33.05,1.35,1.29,2.66,2.61,4.05,3.85,12.09,10.77,26.19,15.17,42.1,12.17,22.44-4.23,37.23-20.54,40.57-43.87H357.06Q357.19,268.24,357.34,279.2Z" transform="translate(-8.97 -0.02)"/>
                <path fill="#6faf47" d="M155,285.13c-8.22,9.54-13.43,20.54-14.78,33.05-1.27,11.69,1.22,22.88,6.13,33.56,2.45,5.32,5.85,10.07,8.72,15.14-2.49,3.54-5.28,6.91-7,10.93-35-9-65-26.63-89.78-53A180.05,180.05,0,0,1,28.8,282.63a34.38,34.38,0,0,1-1.34-3.46c0-.5.05-1,.08-1.51l.15-20.38q33.6-.06,67.2-.1c16.06,0,32.11.07,48.16.11A52.37,52.37,0,0,0,155,285.13Z" transform="translate(-8.97 -0.02)"/>
                <path fill="#e7eefc" d="M27.69,257.28l-.15,20.38-1.27,0c-3.79-6.37-5.29-13.66-8.16-20.4,1.06-1,.59-2.35.59-3.54q0-53.9,0-107.79c0-1.19.48-2.51-.59-3.53a29.55,29.55,0,0,0,.68-7.39c0-36,.3-72-.2-108A20.2,20.2,0,0,1,39.12,6.78q68.41.12,136.83,0a30.75,30.75,0,0,0-5.41,9.12c-4.49,0-9,.07-13.47,0-2.16-.06-3.14.48-3.11,2.89q.16,14,0,28.06c0,2.21.87,2.7,2.88,2.69q35.53-.08,71.08,0c2,0,2.88-.5,2.86-2.7q-.14-14,0-28.06c0-2.42-1-2.94-3.12-2.88-4.49.12-9,0-13.47.06a30.42,30.42,0,0,0-5.41-9.12q68.58,0,137.17,0c10.68,0,20.32,9,20.18,20.28-.45,35.88-.16,71.76-.18,107.64a30.18,30.18,0,0,0,.66,7.76c-1.05,1-.57,2.36-.57,3.55q0,53.87,0,107.72c0,1.19-.48,2.51.58,3.55q-3.66,9.51-7.31,19c-.44,1.14-.55,2.47-2,2.91q-.15-11-.28-21.93c0-3.15,0-6.3-.05-9.46,0-.62.05-1.24.05-1.87q0-99.31,0-198.64c0-1-.07-2-.11-3l0-9.09c0-2.86.12-5.71.07-8.57-.09-6.4-4-10.41-10.4-10.71-2.23-.1-4.47,0-6.71,0l-9.55.09-53.29-.09H267c-7.6,0-15.2.17-22.8,0-3.19-.09-4.35.64-4.25,4.08.25,9.09.1,18.19.08,27.29,0,8.42-2.85,11.28-11.12,11.29l-76.27.1c-5.66-1.4-7.86-4.08-7.91-10-.07-9.82-.08-19.65,0-29.47,0-2.42-.68-3.24-3.16-3.2-8,.12-15.92,0-23.88,0H45.57c-2.49,0-5,0-7.46.09-6.44.29-10.33,4.28-10.42,10.69-.05,2.86,0,5.72.07,8.58l0,9.1c0,1.62-.13,3.24-.13,4.86q0,45.63,0,91.26,0,53.67.07,107.34Z" transform="translate(-8.97 -0.02)"/>
                <path fill="#92c258" d="M226.76,380.16c-13.61,2.12-27.28,3.46-41.08,2.95a276.54,276.54,0,0,1-27.69-3c-.59-1.57.51-2.6,1.27-3.69,15.92-23,50.34-23,66.23,0C226.24,377.55,227.35,378.58,226.76,380.16Z" transform="translate(-8.97 -0.02)"/>
                <path fill="#e7eefc" d="M226.76,380.16c.59-1.58-.52-2.61-1.27-3.7-15.89-23-50.31-23-66.23,0-.76,1.09-1.86,2.12-1.27,3.69a56.06,56.06,0,0,1-10-2.33c1.76-4,4.55-7.4,7-10.94,8.28-8.59,18.09-14.19,30-16.26,20.16-3.5,42.92,8.25,51.4,26.85C233.52,379.49,230,379.31,226.76,380.16Z" transform="translate(-8.97 -0.02)"/>
                <path fill="#d2d2d2" d="M18.11,142.42c1.07,1,.59,2.34.59,3.53q0,53.9,0,107.79c0,1.19.47,2.51-.59,3.54Q-.13,199.85,18.11,142.42Z" transform="translate(-8.97 -0.02)"/>
                <path fill="#d2d2d2" d="M366.63,257.28c-1.06-1-.58-2.36-.58-3.55q0-53.86,0-107.72c0-1.19-.48-2.51.57-3.55a184.3,184.3,0,0,1,8.93,66.94A187,187,0,0,1,366.63,257.28Z" transform="translate(-8.97 -0.02)"/>
                <path fill="#ced9f0" d="M26.27,277.68l1.27,0c0,.5-.05,1-.08,1.51Z" transform="translate(-8.97 -0.02)"/>
                <path fill="#92c258" d="M214.2,16c4.49,0,9,.06,13.47-.06,2.15-.06,3.15.46,3.12,2.88q-.16,14,0,28.06c0,2.2-.85,2.71-2.86,2.7q-35.55-.08-71.08,0c-2,0-2.9-.48-2.88-2.69q.15-14,0-28.06c0-2.41.95-3,3.11-2.89,4.49.12,9,0,13.47,0-1.89,8.29-1.18,16,5.27,22.28,8.63,10.08,24.92,10.05,33.13-.06C215.38,31.87,216.08,24.22,214.2,16Z" transform="translate(-8.97 -0.02)"/>
                <path fill="#e7eefc" d="M155,285.13a52.37,52.37,0,0,1-11.93-27.83c0-3.17,0-6.34-.05-9.51,1.13-10.67,5.49-19.94,12.17-28.22,1-.93,1.93-1.9,2.94-2.8,5.46-4.89,11.28-9.15,18.59-10.88-3.18,4-6,8.15-6.94,13.32C159.62,226,154,235.64,152.1,247.54l0,9.55c.16.73.34,1.46.47,2.19,3.77,22.64,26,37.9,48.26,32.63,18.29-4.32,28.63-16.4,31.75-34.82.08-3.37.64-6.75-.29-10.09A38.61,38.61,0,0,0,215,219.21c-1.19-5.19-3.34-9.84-7.61-13.27,1.59-.43,2.92.37,4.26,1,17.65,8,27.54,21.76,30.13,40.88,0,3.16,0,6.32-.05,9.48-3.34,23.33-18.13,39.64-40.57,43.87-15.91,3-30-1.4-42.1-12.17C157.64,287.74,156.33,286.42,155,285.13Z" transform="translate(-8.97 -0.02)"/>
                <path fill="#d0daf5" d="M241.7,257.28c0-3.16,0-6.32.05-9.48H357c0,3.16,0,6.31.05,9.46Z" transform="translate(-8.97 -0.02)"/>
                <path fill="#ced9f0" d="M143,247.79c0,3.17,0,6.34.05,9.51-16.05-.05-32.1-.12-48.16-.12q-33.6,0-67.2.1,0-4.74,0-9.48Z" transform="translate(-8.97 -0.02)"/>
                <path fill="#91c257" d="M357,247.81H241.75c-2.59-19.12-12.48-32.87-30.13-40.88-1.34-.61-2.67-1.41-4.26-1a21.63,21.63,0,0,0-15.73-5.72c-5.71,0-10.39,2.62-14.93,5.67-7.31,1.73-13.13,6-18.59,10.88-1,.9-2,1.87-2.94,2.8-10.32-12.23-15.38-26.37-14.33-42.31.94-14.29,6.22-27.21,14.28-39,4.64,4.61,9.55,8.87,15.61,11.56-.18.84-.38,1.68-.54,2.52-1.51,7.81-.38,14.91,5.58,20.71a16.93,16.93,0,0,0,8.4,6c9.43,3.39,18.67,1.17,24.79-6a11.06,11.06,0,0,0,3.26-3.95c3.56-6.15,3.47-12.63,1.8-19.26,14.71-7.44,23.74-19.19,26.93-35.39,2.87-1.68,5.94-3,8.44-5.3,4.49,0,9,.09,13.47.08,9.33,0,13.89-4.62,13.89-14.06q0-37.22,0-74.44c0-1.61.21-3.22.33-4.82l53.29.09c.09.73.22,1.47.27,2.21A27.8,27.8,0,0,0,357,44.31c0,1,.11,2,.11,3q0,99.33,0,198.64C357.06,246.57,357,247.19,357,247.81ZM266.42,179c9.27,3.37,18.85,1,24.76-6,6.13-5.87,7.82-15.89,4.14-24.52A23,23,0,0,0,273.92,135c-1.79-.43-3.48.22-5.11.68-8.44,2.35-14.08,7.77-16.37,16.22-2.16,8-.55,15.2,5.48,21.16C259.93,176.22,263.09,177.74,266.42,179Zm-.07,65.18c9.08,3.44,18.94,1,24.82-6.06,6.18-5.92,7.87-15.9,4.16-24.49a23,23,0,0,0-21.41-13.44A21.73,21.73,0,0,0,257,208.25c-8.48,10-6.23,23.93.9,29.95C259.9,241.38,263.07,242.85,266.35,244.18ZM308.25,114a21.5,21.5,0,0,0,24-6.16,22.22,22.22,0,0,0,4-24.85,22.55,22.55,0,0,0-21.17-13.14c-9.65.28-16.6,5.07-20.42,13.62-3.9,8.76-2.55,17.17,4.11,24.41A16.87,16.87,0,0,0,308.25,114Z" transform="translate(-8.97 -0.02)"/>
                <path fill="#6fae46" d="M155.12,138.25c-8.06,11.8-13.34,24.72-14.28,39-1.05,15.94,4,30.08,14.33,42.31-6.68,8.28-11,17.55-12.17,28.22H27.74q0-53.67-.07-107.34,0-45.63,0-91.26c0-1.62.08-3.24.13-4.86,8.46-.15,15.22-3.76,20.77-10,4.68-5.28,6-11.79,7.06-18.44h52c.66,1.56.4,3.2.4,4.81q0,37,0,74.06c0,10.22,4.26,14.44,14.61,14.43,4.23,0,8.47,0,12.71-.08,2.53,2,5.06,3.91,8.2,4.83a1,1,0,0,0,.24.57C145.18,123.56,149.62,131.16,155.12,138.25Zm-52.56,106.2c9.94,2.85,19.41.41,24.27-6.27,6.52-6.11,8.21-15.94,4.25-24.64-3.89-8.53-13.2-14.23-21.73-13.31a31.76,31.76,0,0,0-3.66.41c-8.84,2.09-14.87,7.44-17.28,16.19-2.16,7.87-1,15.26,5.15,21.28A18.8,18.8,0,0,0,102.56,244.45Zm0-65.35c8.87,3.26,19.31.66,24.3-6,6.41-6.09,8.15-15.68,4.4-24.3S118.34,134.34,109.35,135c-5.23-.07-9.66,2.1-13.67,5.14-9.91,7.53-11,24.33-2.12,32.79A17.31,17.31,0,0,0,102.53,179.1ZM61.44,113.86a21.84,21.84,0,0,0,24.53-6c6.49-7.12,7.93-15.26,4.2-24a22.28,22.28,0,0,0-21.3-14c-1.91-.43-3.75.25-5.48.73-8.28,2.31-13.88,7.62-16.12,16-2.14,7.95-.65,15.21,5.21,21.3A17.18,17.18,0,0,0,61.44,113.86Z" transform="translate(-8.97 -0.02)"/>
                <path fill="#92c258" d="M152.66,58.61l76.27-.1c8.27,0,11.11-2.87,11.12-11.29,0-9.1.17-18.2-.08-27.29-.1-3.44,1.06-4.17,4.25-4.08,7.6.21,15.2.05,22.81,0,.72,10,.24,19.92.29,29.88.1,16.58,0,33.16.08,49.74,0,3.23-1,4.58-4.29,4.36-2.61-.18-5.23,0-7.85,0,.14-.73.28-1.45.44-2.18,3.16-14.76-8.2-28.59-22.92-27.88-13,0-26.26,13.12-21,30.29l-38.74,0c5-16.45-6.92-30-21.75-30.55C148.3,65.47,150.1,62,152.66,58.61Zm39.7,15c-3.3,0-5.66,1.88-5.73,4.55s2.35,4.65,5.57,4.73,6-2,5.91-4.75S195.66,73.57,192.36,73.57Z" transform="translate(-8.97 -0.02)"/>
                <path fill="#6faf47" d="M152.66,58.61c-2.56,3.38-4.36,6.86-1.41,11l-.75.29a20.42,20.42,0,0,0-11.26,3.36c-7.33,4.65-12.83,13.26-9.77,26.76l-7.08-.08c-4.86,0-5-.17-5-5q0-37.47,0-74.93c0-1.35.23-2.7.36-4.05,8,0,15.92.13,23.88,0,2.48,0,3.19.78,3.16,3.2-.11,9.82-.1,19.65,0,29.47C144.8,54.53,147,57.21,152.66,58.61Z" transform="translate(-8.97 -0.02)"/>
                <path fill="#ced9f0" d="M117.74,15.89c-.13,1.35-.36,2.7-.36,4.05q0,37.47,0,74.93c0,4.85.17,5,5,5l7.08.07c1.72,2.64,2.49,5.9,5.2,7.89l.69,1.26c-4.24,0-8.48.08-12.71.08-10.35,0-14.6-4.21-14.61-14.43q0-37,0-74.06c0-1.61.26-3.25-.4-4.81Z" transform="translate(-8.97 -0.02)"/>
                <path fill="#ced9f0" d="M255.26,99.9c2.62,0,5.24-.21,7.85,0,3.29.22,4.32-1.13,4.29-4.36-.12-16.58,0-33.16-.08-49.74-.05-10,.43-19.93-.29-29.88H277.1c-.12,1.6-.33,3.21-.33,4.82q0,37.22,0,74.44c0,9.44-4.56,14.06-13.89,14.06-4.49,0-9,0-13.47-.08.23-.43.45-.86.67-1.3C252.83,105.87,253.54,102.56,255.26,99.9Z" transform="translate(-8.97 -0.02)"/>
                <path fill="#d0daf5" d="M55.64,15.89c-1,6.65-2.38,13.16-7.06,18.44-5.55,6.25-12.31,9.86-20.77,10q0-4.55,0-9.1C38.44,34.88,47,25.55,45.57,15.88Z" transform="translate(-8.97 -0.02)"/>
                <path fill="#d0daf5" d="M357,44.31a27.8,27.8,0,0,1-26.29-26.12c-.05-.74-.18-1.48-.27-2.21l9.55-.09c-1,9.65,6.71,18.41,17,19.33Z" transform="translate(-8.97 -0.02)"/>
                <path fill="#6faf47" d="M45.57,15.88c1.46,9.67-7.13,19-17.81,19.36,0-2.86-.12-5.72-.07-8.58.09-6.41,4-10.4,10.42-10.69C40.59,15.86,43.08,15.9,45.57,15.88Z" transform="translate(-8.97 -0.02)"/>
                <path fill="#92c258" d="M357,35.22c-10.33-.92-18.05-9.68-17-19.33,2.24,0,4.48-.05,6.71,0,6.42.3,10.31,4.31,10.4,10.71C357.1,29.51,357,32.36,357,35.22Z" transform="translate(-8.97 -0.02)"/>
                <path fill="#92c258" d="M232.61,257.09c-3.12,18.42-13.46,30.5-31.75,34.82-22.27,5.27-44.49-10-48.26-32.63-.13-.73-.31-1.46-.47-2.19,11.18-.07,22.36-.12,33.54-.22,1.56,0,2.2.52,2.25,2.15.09,2.76,1.63,4.43,4.45,4.43s4.36-1.68,4.46-4.43c.06-1.63.69-2.16,2.24-2.15Q215.84,257,232.61,257.09Z" transform="translate(-8.97 -0.02)"/>
                <path fill="#d0daf5" d="M232.61,257.09q-16.77-.09-33.54-.22c-1.55,0-2.18.52-2.24,2.15-.1,2.75-1.63,4.43-4.46,4.43s-4.36-1.67-4.45-4.43c0-1.63-.69-2.16-2.25-2.15-11.18.1-22.36.15-33.54.22l0-9.55c11.26.73,22.54.1,33.81.34,1.79,0,2.05-.94,2-2.33h8.95c-.26,2.14,1,2.34,2.72,2.33,10,0,20.05,0,30.08,0,1,0,2,.19,2.67-.85C233.25,250.34,232.69,253.72,232.61,257.09Z" transform="translate(-8.97 -0.02)"/>
                <path fill="#92c258" d="M232.32,247c-.65,1-1.71.85-2.67.85-10,0-20.05,0-30.08,0-1.71,0-3-.19-2.72-2.33,4.55-1.62,9.2-3.08,12.1-7.39a10.44,10.44,0,0,0,2.92-3.28c3.22-4.8,3.25-10.21,3.1-15.67A38.61,38.61,0,0,1,232.32,247Z" transform="translate(-8.97 -0.02)"/>
                <path fill="#92c258" d="M187.9,245.55c.06,1.39-.2,2.36-2,2.33-11.27-.24-22.55.39-33.81-.34,1.94-11.9,7.52-21.54,17.66-28.33-.52,7.12.39,13.8,6,19,2.25,3.2,5.53,4.94,9.06,6.31Z" transform="translate(-8.97 -0.02)"/>
                <path fill="#5172b4" d="M215,219.21c.15,5.46.12,10.87-3.1,15.67a10.44,10.44,0,0,1-2.92,3.28c-.36-6.83-3.8-10.69-10.75-11.21-.61,0-1.22-.17-1.83-.25C200.86,224,203,220.22,202,215c-.83-4.29-4.25-6.94-9.67-7.76-2.41-2.1-1.13-4.59-.72-7a21.63,21.63,0,0,1,15.73,5.72C211.63,209.37,213.78,214,215,219.21Z" transform="translate(-8.97 -0.02)"/>
                <path fill="#3f599e" d="M191.63,200.22c-.41,2.4-1.69,4.89.72,7-4.83.45-8.25,2.8-9.58,7.56s.49,8.31,5.57,11.89c-10.16,1.76-10.66,2.22-12.57,11.54-5.62-5.19-6.53-11.87-6-19,.91-5.17,3.76-9.34,6.94-13.32C181.24,202.84,185.92,200.18,191.63,200.22Z" transform="translate(-8.97 -0.02)"/>
                <path fill="#5172b4" d="M214,149.82c1.67,6.63,1.76,13.11-1.8,19.26A11.06,11.06,0,0,1,209,173c-1.81-9-2.35-9.54-10.52-11.18-.72-.14-1.46-.18-2.19-.27,5.42-3.93,7.08-7.59,5.68-12.49-1.17-4.09-4.83-6.58-10.31-7a12.08,12.08,0,0,1,0-7.07c7.05-.39,12.76,2.53,17.73,7.24Z" transform="translate(-8.97 -0.02)"/>
                <path fill="#5172b4" d="M315.08,69.83A22.55,22.55,0,0,1,336.25,83a22.22,22.22,0,0,1-4,24.85,23.47,23.47,0,0,1-.72-2.83c-.57-4.27-2.77-7-7.15-7.69L319,96.43c5.48-3.54,7.55-7.46,6.35-12-1.26-4.79-4.81-7.31-10.81-7.69A13.83,13.83,0,0,1,315.08,69.83Z" transform="translate(-8.97 -0.02)"/>
                <path fill="#5172b4" d="M273.92,135a23,23,0,0,1,21.4,13.45c3.68,8.63,2,18.65-4.14,24.52-.54-7.93-5.31-11.13-12.72-11.38,5.22-3.88,7-7.71,5.64-12.23s-4.59-6.77-10.18-7.28A9.11,9.11,0,0,1,273.92,135Z" transform="translate(-8.97 -0.02)"/>
                <path fill="#5172b4" d="M273.92,200.19a23,23,0,0,1,21.41,13.44c3.71,8.59,2,18.57-4.16,24.49-.23-.82-.54-1.63-.69-2.47-1-5.46-2.52-7.07-7.94-8.15l-4-.79c5.13-3.88,6.87-7.74,5.5-12.22s-4.6-6.74-10.14-7.24A9,9,0,0,1,273.92,200.19Z" transform="translate(-8.97 -0.02)"/>
                <path fill="#3f599e" d="M273.92,135a9.11,9.11,0,0,0,0,7.08c-5.56,1.16-8.35,3.66-9.17,8.43-.88,5.15,1.69,8.52,5.91,11-10.15,1.49-11.22,2.46-12.74,11.57-6-6-7.64-13.19-5.48-21.16,2.29-8.45,7.93-13.87,16.37-16.22C270.44,135.22,272.13,134.57,273.92,135Z" transform="translate(-8.97 -0.02)"/>
                <path fill="#3f599e" d="M273.92,200.19a9,9,0,0,0,0,7.06c-4.67.79-8,3.09-9.11,8-1.16,5.25,1.43,8.73,5.53,11.46-9.93,1.58-10.93,2.52-12.42,11.53-7.13-6-9.38-20-.9-30A21.73,21.73,0,0,1,273.92,200.19Z" transform="translate(-8.97 -0.02)"/>
                <path fill="#3f599e" d="M315.08,69.83a13.83,13.83,0,0,0-.58,6.87c-4.95,1-8.12,3.9-8.89,9-.61,4,1.82,7.86,6.31,10.24a4.4,4.4,0,0,1,.05.51c-9.53.72-10.79,1.79-13,11.09a1,1,0,0,1-.2.31c-6.66-7.24-8-15.65-4.11-24.41C298.48,74.9,305.43,70.11,315.08,69.83Z" transform="translate(-8.97 -0.02)"/>
                <path fill="#3f599e" d="M191.63,135a12.08,12.08,0,0,0,0,7.07c-5.25,1.18-8.3,3.91-9,8.12-.83,5.22,1.53,8.8,5.92,11.29-10.11,1.43-11.13,2.35-12.79,11.55-6-5.8-7.09-12.9-5.58-20.71.16-.84.36-1.68.54-2.52l4.65-7.55C179.93,137.9,185.17,135.09,191.63,135Z" transform="translate(-8.97 -0.02)"/>
                <path fill="#e7eefc" d="M175.38,142.26l-4.65,7.55c-6.06-2.69-11-6.95-15.61-11.56-5.5-7.09-9.94-14.69-11.32-23.74l9.54.91a22.24,22.24,0,0,0,.49,2.18C157.5,128.89,165.1,136.75,175.38,142.26Z" transform="translate(-8.97 -0.02)"/>
                <path fill="#e7eefc" d="M214,149.82q-2.33-3.8-4.66-7.57c1.18-.69,2.38-1.36,3.54-2.07,9.43-5.81,15.79-13.92,18.49-24.75a48,48,0,0,0,9.56-1C237.76,130.63,228.73,142.38,214,149.82Z" transform="translate(-8.97 -0.02)"/>
                <path fill="#fc7185" d="M241,114.43a48,48,0,0,1-9.56,1A18.9,18.9,0,0,1,226,114a74.07,74.07,0,0,0,0-7.45,9.07,9.07,0,0,1,4.15-9c.54-.38,1-.73,1-1.44,2.08-.54,4.1.07,6.14.35,9.22.89,10.35,1.85,12.61,10.66.06.24.11.48.17.71-.22.44-.44.87-.67,1.3C246.89,111.4,243.82,112.75,241,114.43Z" transform="translate(-8.97 -0.02)"/>
                <path fill="#fc7185" d="M196.25,161.58c.73.09,1.47.13,2.19.27,8.17,1.64,8.71,2.22,10.52,11.18-6.12,7.13-15.36,9.35-24.79,6,1.4-1.74.81-3.82.65-5.67-.42-5,1.26-8.86,5.36-11.69Z" transform="translate(-8.97 -0.02)"/>
                <path fill="#fc7185" d="M312,96.46a4.4,4.4,0,0,0-.05-.51,26.41,26.41,0,0,1,7,.48l5.44.87c4.38.71,6.58,3.42,7.15,7.69a23.47,23.47,0,0,0,.72,2.83,21.49,21.49,0,0,1-24,6.16c.44-5.89-1.64-12.38,4.12-17C312.38,97,312.11,96.65,312,96.46Z" transform="translate(-8.97 -0.02)"/>
                <path fill="#fc7185" d="M278.57,226.71l4,.79c5.42,1.08,7,2.69,7.94,8.15.15.84.46,1.65.69,2.47-5.88,7.1-15.74,9.5-24.82,6.06,1.59-1.84.95-4.09.75-6.05-.51-5,1.19-8.65,5.32-11.32Z" transform="translate(-8.97 -0.02)"/>
                <path fill="#fc7185" d="M278.46,161.59c7.41.25,12.18,3.45,12.72,11.38-5.91,7.06-15.49,9.4-24.76,6,1.48-1.87.89-4.1.68-6.06a11,11,0,0,1,5.37-11.28Z" transform="translate(-8.97 -0.02)"/>
                <path fill="#fa4256" d="M312,96.46c.14.19.41.53.41.54-5.76,4.6-3.68,11.09-4.12,17a16.86,16.86,0,0,1-9.49-6.12,1,1,0,0,0,.2-.31C301.18,98.25,302.44,97.18,312,96.46Z" transform="translate(-8.97 -0.02)"/>
                <path fill="#fa4256" d="M272.47,161.66a11,11,0,0,0-5.37,11.28c.21,2,.8,4.19-.68,6.06-3.33-1.26-6.49-2.78-8.5-5.94,1.52-9.11,2.59-10.08,12.74-11.57Z" transform="translate(-8.97 -0.02)"/>
                <path fill="#fa4256" d="M272.42,226.81c-4.13,2.67-5.83,6.36-5.32,11.32.2,2,.84,4.21-.75,6.05-3.28-1.33-6.45-2.8-8.42-6,1.49-9,2.49-10,12.42-11.53Z" transform="translate(-8.97 -0.02)"/>
                <path fill="#fa4256" d="M190.18,161.63c-4.1,2.83-5.78,6.69-5.36,11.69.16,1.85.75,3.93-.65,5.67a16.93,16.93,0,0,1-8.4-6c1.66-9.2,2.68-10.12,12.79-11.55Z" transform="translate(-8.97 -0.02)"/>
                <path fill="#5172b4" d="M109.35,200.23c8.53-.92,17.84,4.78,21.73,13.31,4,8.7,2.27,18.53-4.26,24.64-1.6-8.76-2.13-9.33-10.6-11.17-.6-.14-1.21-.18-1.82-.26,4-3,6.94-6.48,5.46-11.9-1.35-4.93-4.85-7.27-9.81-7.64C108.22,205.05,108.65,202.65,109.35,200.23Z" transform="translate(-8.97 -0.02)"/>
                <path fill="#5172b4" d="M109.35,135c9-.7,18.1,5,21.88,13.71s2,18.21-4.4,24.3c-1.45-8.5-2.41-9.6-9.86-11.11-1-.2-2-.26-2.93-.38,5.27-3.58,7.11-7.34,5.84-11.95-1.32-4.78-4.65-7.15-10.57-7.53A11.82,11.82,0,0,1,109.35,135Z" transform="translate(-8.97 -0.02)"/>
                <path fill="#5172b4" d="M68.87,69.82a22.28,22.28,0,0,1,21.3,14c3.73,8.79,2.29,16.93-4.2,24C84.13,96.58,80,97.57,73.18,96.49c4.24-3.12,7.35-6.75,5.55-12.54-1.44-4.61-4.43-6.6-10.58-7.07A8.53,8.53,0,0,1,68.87,69.82Z" transform="translate(-8.97 -0.02)"/>
                <path fill="#3f599e" d="M68.87,69.82a8.53,8.53,0,0,0-.72,7.06c-5.39,1.39-8.32,4.3-8.87,8.8-.52,4.21,1.53,7.74,5.93,10.22a1,1,0,0,1,0,.63c-8.79.59-10.48,2-12.26,10.26a6,6,0,0,1-.44,1c-5.86-6.09-7.35-13.35-5.21-21.3,2.24-8.34,7.84-13.65,16.12-16C65.12,70.07,67,69.39,68.87,69.82Z" transform="translate(-8.97 -0.02)"/>
                <path fill="#3f599e" d="M109.35,135a11.82,11.82,0,0,0,0,7c-5.36,1.3-8.35,4.18-8.93,8.59s1.48,8.1,6,10.42a2.66,2.66,0,0,1-.12.56c-8.86.76-10.31,2-12.33,10.26-.09.36-.22.71-.33,1.06-8.83-8.46-7.79-25.26,2.12-32.79C99.69,137.14,104.12,135,109.35,135Z" transform="translate(-8.97 -0.02)"/>
                <path fill="#3f599e" d="M109.35,200.23c-.7,2.42-1.13,4.82.7,7-4.83.48-8.14,2.93-9.48,7.64-1.26,4.4.68,8.25,5.68,11.81-1.45.29-2.89.61-4.35.85-4.6.78-7.3,3.31-7.67,8.11a14.14,14.14,0,0,1-.67,2.49c-6.12-6-7.31-13.41-5.15-21.28,2.41-8.75,8.44-14.1,17.28-16.19A31.76,31.76,0,0,1,109.35,200.23Z" transform="translate(-8.97 -0.02)"/>
                <path fill="#fc7185" d="M65.18,96.53a1,1,0,0,0,0-.63,37.32,37.32,0,0,1,8,.59C80,97.57,84.13,96.58,86,107.85a21.84,21.84,0,0,1-24.53,6c0-.62,0-1.24,0-1.86,0-5.39-.84-11,4.61-14.75C66.46,97,65.6,96.66,65.18,96.53Z" transform="translate(-8.97 -0.02)"/>
                <path fill="#fc7185" d="M153.34,115.42l-9.54-.91a1,1,0,0,1-.24-.57c.06-1.24.22-2.48.18-3.72-.17-4.93-.31-9.79,4.49-13,.49-.33-.49-.49-.85-.66a1.1,1.1,0,0,0,0-.57,29.44,29.44,0,0,1,7.67.5c9.81,1,11.33,2.34,12.82,11.5l-.69,1.18A24.72,24.72,0,0,1,153.34,115.42Z" transform="translate(-8.97 -0.02)"/>
                <path fill="#fc7185" d="M114,161.56c1,.12,2,.18,2.93.38,7.45,1.51,8.41,2.61,9.86,11.11-5,6.71-15.43,9.31-24.3,6,.13-6.35-1-13.09,5.38-17.5Z" transform="translate(-8.97 -0.02)"/>
                <path fill="#fc7185" d="M114.4,226.75c.61.08,1.22.12,1.82.26,8.47,1.84,9,2.41,10.6,11.17-4.85,6.68-14.32,9.12-24.26,6.27-.1-6.45-.85-13.1,5.29-17.69Z" transform="translate(-8.97 -0.02)"/>
                <path fill="#fa4256" d="M107.91,161.6c-6.43,4.41-5.25,11.15-5.38,17.5a17.31,17.31,0,0,1-9-6.13c.11-.35.24-.7.33-1.06,2-8.29,3.47-9.5,12.33-10.26l.94-.1Z" transform="translate(-8.97 -0.02)"/>
                <path fill="#fa4256" d="M107.85,226.76c-6.14,4.59-5.39,11.24-5.29,17.69a18.8,18.8,0,0,1-9-6.34,14.14,14.14,0,0,0,.67-2.49c.37-4.8,3.07-7.33,7.67-8.11,1.46-.24,2.9-.56,4.35-.85Z" transform="translate(-8.97 -0.02)"/>
                <path fill="#fa4256" d="M65.18,96.53c.42.13,1.28.46.9.72-5.45,3.73-4.63,9.36-4.61,14.75,0,.62,0,1.24,0,1.86a17.18,17.18,0,0,1-9-6,6,6,0,0,0,.44-1C54.7,98.54,56.39,97.12,65.18,96.53Z" transform="translate(-8.97 -0.02)"/>
                <path fill="#fa4256" d="M147.38,96.51c.36.17,1.34.33.85.66-4.8,3.26-4.66,8.12-4.49,13,0,1.24-.12,2.48-.18,3.72-3.14-.92-5.67-2.88-8.2-4.83l-.69-1.26C137.15,98.23,138.34,97.17,147.38,96.51Z" transform="translate(-8.97 -0.02)"/>
                <path fill="#5172b4" d="M167.88,107.94c-1.49-9.16-3-10.52-12.82-11.5,5.48-3.87,7.11-7.34,5.84-12.35-1.06-4.16-4.77-6.72-10.44-7.2a11.74,11.74,0,0,1,0-7l.75-.29c14.83.56,26.79,14.1,21.75,30.56C171.57,102.91,170.51,105.94,167.88,107.94Z" transform="translate(-8.97 -0.02)"/>
                <path fill="#5172b4" d="M250.06,107.83c-.06-.23-.11-.47-.17-.71-2.26-8.81-3.39-9.77-12.61-10.66,4.45-2.84,7.06-6.6,5.79-12.12-1-4.41-4.51-6.86-10.3-7.45a9,9,0,0,1,0-7C247.5,69.13,258.86,83,255.7,97.72c-.16.73-.3,1.45-.44,2.18C253.54,102.56,252.83,105.87,250.06,107.83Z" transform="translate(-8.97 -0.02)"/>
                <path fill="#3f599e" d="M232.78,69.84a9,9,0,0,0,0,7c-5.17,1.06-8.35,3.9-9,8.06-.82,5,1,8.42,6,11.16-7.19.81-12.88,3.27-12.89,11.88-2.53-2.08-3.68-5.06-5.09-7.86C206.52,83,219.78,69.8,232.78,69.84Z" transform="translate(-8.97 -0.02)"/>
                <path fill="#d0daf5" d="M211.74,100.13c1.41,2.8,2.56,5.78,5.09,7.86l.66,1.14h-50.3l.69-1.18c2.63-2,3.69-5,5.12-7.82Z" transform="translate(-8.97 -0.02)"/>
                <path fill="#e7eefc" d="M192.36,73.57c3.3,0,5.67,1.86,5.75,4.53s-2.55,4.83-5.91,4.75-5.64-2.13-5.57-4.73S189.06,73.58,192.36,73.57Z" transform="translate(-8.97 -0.02)"/>
                <path fill="#3f599e" d="M150.5,69.85a11.74,11.74,0,0,0,0,7c-5.27,1.16-8.41,4.16-9,8.57-.59,4.64,1.28,8,5.89,10.48a1.1,1.1,0,0,1,0,.57c-9,.66-10.23,1.72-12.71,11.34-2.71-2-3.48-5.25-5.2-7.89-3.06-13.49,2.44-22.1,9.77-26.75A20.42,20.42,0,0,1,150.5,69.85Z" transform="translate(-8.97 -0.02)"/>
                <path fill="#fc7185" d="M196.37,226.7c.61.08,1.22.21,1.83.25,7,.52,10.39,4.38,10.75,11.21-2.9,4.31-7.55,5.77-12.1,7.39H187.9l-3.07-1c.34-6.34-1.63-13.37,5.31-17.73Z" transform="translate(-8.97 -0.02)"/>
                <path fill="#fa4256" d="M190.14,226.78c-6.94,4.36-5,11.39-5.31,17.73-3.53-1.37-6.81-3.11-9.06-6.31,1.91-9.32,2.41-9.78,12.57-11.54Z" transform="translate(-8.97 -0.02)"/>
                <path fill="#fbc4aa" d="M190.14,226.78l-1.8-.12c-5.08-3.58-6.89-7.2-5.57-11.89s4.75-7.11,9.58-7.56c5.42.82,8.84,3.47,9.67,7.76,1,5.25-1.16,9.07-5.65,11.73Z" transform="translate(-8.97 -0.02)"/>
                <path fill="#92c257" d="M167.19,109.12l50.3,0c2.72,1.8,5.06,4.28,8.49,4.81a18.9,18.9,0,0,0,5.41,1.48c-2.7,10.83-9.06,18.94-18.49,24.75-1.16.71-2.36,1.38-3.54,2.07-5-4.71-10.68-7.63-17.73-7.24-6.46.08-11.7,2.89-16.25,7.25-10.28-5.51-17.88-13.37-21.55-24.66a22.24,22.24,0,0,1-.49-2.18A24.72,24.72,0,0,0,167.19,109.12Z" transform="translate(-8.97 -0.02)"/>
                <path fill="#fbc4aa" d="M190.18,161.63l-1.62-.14c-4.39-2.49-6.75-6.07-5.92-11.29.68-4.21,3.73-6.94,9-8.12,5.48.43,9.14,2.92,10.31,7,1.4,4.9-.26,8.56-5.68,12.49Z" transform="translate(-8.97 -0.02)"/>
                <path fill="#fbc4aa" d="M319,96.43a26.41,26.41,0,0,0-7-.48c-4.49-2.38-6.92-6.2-6.31-10.24.77-5.11,3.94-8,8.89-9,6,.38,9.55,2.9,10.81,7.69C326.51,89,324.44,92.89,319,96.43Z" transform="translate(-8.97 -0.02)"/>
                <path fill="#fbc4aa" d="M272.47,161.66l-1.81-.17c-4.22-2.46-6.79-5.83-5.91-11,.82-4.77,3.61-7.27,9.17-8.43,5.59.51,8.86,2.85,10.18,7.28s-.42,8.35-5.64,12.23Z" transform="translate(-8.97 -0.02)"/>
                <path fill="#fbc4aa" d="M272.42,226.81l-2.07-.13c-4.1-2.73-6.69-6.21-5.53-11.46,1.07-4.88,4.44-7.18,9.11-8,5.54.5,8.79,2.82,10.14,7.24s-.37,8.34-5.5,12.22Z" transform="translate(-8.97 -0.02)"/>
                <path fill="#fbc4aa" d="M229.72,96.11c-5-2.74-6.79-6.12-6-11.16.67-4.16,3.85-7,9-8.06,5.79.59,9.28,3,10.3,7.45,1.27,5.52-1.34,9.28-5.79,12.12-2-.28-4.06-.89-6.14-.35Z" transform="translate(-8.97 -0.02)"/>
                <path fill="#fa4256" d="M229.72,96.11h1.42c0,.71-.45,1.06-1,1.44a9.07,9.07,0,0,0-4.15,9,74.07,74.07,0,0,1,0,7.45c-3.43-.53-5.77-3-8.49-4.81l-.66-1.15C216.84,99.38,222.53,96.92,229.72,96.11Z" transform="translate(-8.97 -0.02)"/>
                <path fill="#fbc4aa" d="M107.85,226.76l-1.6-.1c-5-3.56-6.94-7.41-5.68-11.81,1.34-4.71,4.65-7.16,9.48-7.64,5,.37,8.46,2.71,9.81,7.64,1.48,5.42-1.44,8.94-5.46,11.9Z" transform="translate(-8.97 -0.02)"/>
                <path fill="#fbc4aa" d="M107.91,161.6l-.75,0-.82-.46c-4.48-2.32-6.55-5.93-6-10.42s3.57-7.29,8.93-8.59c5.92.38,9.25,2.75,10.57,7.53,1.27,4.61-.57,8.37-5.84,11.95Z" transform="translate(-8.97 -0.02)"/>
                <path fill="#fbc4aa" d="M73.18,96.49a37.32,37.32,0,0,0-8-.59c-4.4-2.48-6.45-6-5.93-10.22.55-4.5,3.48-7.41,8.87-8.8,6.15.47,9.14,2.46,10.58,7.07C80.53,89.74,77.42,93.37,73.18,96.49Z" transform="translate(-8.97 -0.02)"/>
                <path fill="#fc7185" d="M106.34,161.09l.82.46-.94.1A2.66,2.66,0,0,0,106.34,161.09Z" transform="translate(-8.97 -0.02)"/>
                <path fill="#fbc4aa" d="M147.39,95.94c-4.61-2.53-6.48-5.84-5.89-10.48.55-4.41,3.69-7.41,9-8.57,5.67.48,9.38,3,10.44,7.2,1.27,5-.36,8.48-5.84,12.35A29.44,29.44,0,0,0,147.39,95.94Z" transform="translate(-8.97 -0.02)"/>
            </g>
            <path fill="#f2c50c" d="M194.46,45.88,184.92,45a1,1,0,0,1-.24-.56c.06-1.24.22-2.49.18-3.73-.17-4.92-.31-9.79,4.49-13,.49-.33-.5-.49-.85-.66a1.18,1.18,0,0,0,0-.56,29,29,0,0,1,7.67.49c9.81,1,11.33,2.34,12.82,11.5l-.69,1.18A24.8,24.8,0,0,1,194.46,45.88Z" transform="translate(-8.97 -0.02)"/>
            <path fill="#e5bb0c" d="M188.5,27c.35.17,1.34.33.85.66-4.8,3.26-4.66,8.13-4.49,13.05,0,1.24-.12,2.49-.18,3.73-3.14-.93-5.67-2.88-8.2-4.84l-.69-1.26C178.27,28.68,179.46,27.62,188.5,27Z" transform="translate(-8.97 -0.02)"/>
            <path fill="#5172b4" d="M209,38.39c-1.49-9.16-3-10.52-12.82-11.5,5.47-3.87,7.11-7.33,5.84-12.35-1.06-4.15-4.77-6.71-10.44-7.2a11.74,11.74,0,0,1,0-7l.74-.28c14.84.55,26.8,14.09,21.76,30.55C212.69,33.36,211.63,36.39,209,38.39Z" transform="translate(-8.97 -0.02)"/>
            <path fill="#3f599e" d="M191.62.3a11.74,11.74,0,0,0,0,7c-5.27,1.16-8.41,4.16-9,8.57-.59,4.64,1.28,8,5.89,10.49a1.18,1.18,0,0,1,0,.56c-9,.66-10.23,1.72-12.71,11.34-2.71-2-3.48-5.25-5.2-7.88-3.06-13.5,2.44-22.1,9.77-26.76A20.42,20.42,0,0,1,191.62.3Z" transform="translate(-8.97 -0.02)"/>
            <path fill="#fbc4aa" d="M188.51,26.4c-4.61-2.53-6.48-5.85-5.89-10.49.55-4.41,3.69-7.41,9-8.57,5.67.49,9.38,3.05,10.44,7.2,1.27,5-.37,8.48-5.84,12.35A29,29,0,0,0,188.51,26.4Z" transform="translate(-8.97 -0.02)"/>
        </g>
    </g>
</svg>