<svg xmlns="http://www.w3.org/2000/svg" viewBox="0 0 412.03 412.03">

    <title>tactics</title>
    <g id="Camada_2" data-name="Camada 2">
        <g id="Camada_2-2" data-name="Camada 2">
            <circle fill="#e2e2e2" cx="206.02" cy="206.02" r="206.02"/>
        </g>
        <g id="Camada_6" data-name="Camada 6">
            <path fill="#a4afbb" d="M119.23,55.17c.78-9.38,8.35-16,18.43-15.63,13.87.55,27.77.08,41.65.18,2.66,0,3.83-.55,4.08-3.54.87-10.48,11.55-21,22.67-20.52,15.21.67,23.29,6.82,25.77,21.81.44,2.67,2,2.19,3.56,2.19,14.53,0,29.05,0,43.58,0,9.71,0,15.86,5.91,16.4,15.61q0,21.84-.07,43.69c-.37,10.68-6.31,16.38-17.1,16.38H136.6c-10.18,0-16.54-5.94-17.33-16.17l0-43.27A1.77,1.77,0,0,0,119.23,55.17ZM206.73,89c7,.06,13.64-2.8,17.74-7.33,2.63-2.91,2.78-6.06.38-8.56s-5.68-2.46-8.61-.06c-6.49,5.33-11,5.33-17.38,0-2.83-2.34-6.44-2.37-8.67-.09s-2.16,6.22.55,8.93A24.13,24.13,0,0,0,206.73,89Zm59.8-15.87c0-1.67.11-3.34,0-5a6.06,6.06,0,0,0-5.92-5.9,5.93,5.93,0,0,0-6.09,5.69,66.22,66.22,0,0,0,0,10.35c.31,3.3,2.42,5.31,5.85,5.48a5.93,5.93,0,0,0,6.12-5.65C266.66,76.41,266.52,74.74,266.53,73.08Zm-105.77.22c-.13-2.09-.09-4-.4-5.91-.57-3.39-2.8-5.28-6.16-5.11s-5.39,2.33-5.57,5.74a90,90,0,0,0,0,10c.21,3.4,2.26,5.48,5.66,5.65,3.23.17,5.36-1.61,6-4.8A49.73,49.73,0,0,0,160.76,73.3Zm46.77-26.58c3,0,5.8-2.6,5.82-5.42s-3.4-6.14-6-6a5.82,5.82,0,0,0-5.54,5.79C201.71,44.61,203.82,46.7,207.53,46.72Z"/>
            <path fill="#dd8957" d="M119.24,55.93l-.76-.59.75-.17A1.77,1.77,0,0,1,119.24,55.93Z"/>
            <path fill="#dd8957" d="M296.75,55.34c-.23.33-.48.43-.76,0Z"/>
            <path fill="#f7f7f7" d="M319.24,100.34c9.3,2.45,15.15,10.3,15.19,20.67.06,17.48,0,35,0,52.45q0,83.88,0,167.76c0,11.07-6.16,19.27-16.16,21.5a25.24,25.24,0,0,1-5.36.41q-105.48,0-210.95,0c-12.73,0-21.28-8.56-21.28-21.29q0-110.49,0-221c0-10.07,5.65-17.9,14.51-20.29,1.13.83.84,2,.9,3.18.59,9.85,5,18,12,24.59,8.29,7.82,18.42,11,29.82,11q70.71-.17,141.44,0a43.79,43.79,0,0,0,9.84-1.28C304.67,134.48,319.31,119.07,319.24,100.34Zm-109,106.78c-4.62,0-9.25,0-13.88,0-4.09,0-6.74,2.38-8.32,5.85a9,9,0,0,0,1.48,10.07c.83,1,1.79,1.85,2.69,2.76,3.72,3.73,3.71,3.71-.85,6.26a120.53,120.53,0,0,0-38.69,33.58c-2.23,3-4,5.91-8.48,4.12-1.23-.48-2.8-.13-4.21-.1-14.93.22-27.42,13-27.57,28.16s12.49,28.66,27.33,28.91c12.85.22,22.44-5.48,27.5-17.32,4.8-11.25,3.08-21.9-5.57-30.95-1.61-1.68-1.57-2.79-.22-4.54,11.09-14.36,24.45-25.92,40.79-34,2.34-1.15,3.63-.69,5.24,1,3,3.21,6.11,6.26,9.26,9.29,2.94,2.82,6.45,3.71,10.27,2.13s6.33-4.56,6.4-8.83c.14-9,.16-18,0-27a9.57,9.57,0,0,0-9.66-9.47C219.22,207,214.72,207.11,210.21,207.12ZM274,213.49c14.7.55,28.48-11.29,28.69-28.45.19-15.75-13.2-28.72-28.74-28.69a29.17,29.17,0,0,0-28.75,28.75A28.5,28.5,0,0,0,274,213.49Zm-17.5,113.3a7.25,7.25,0,0,0,5.12-2.56c3.11-3.07,6.34-6,9.23-9.31,2.21-2.49,3.76-3,6.17-.14,2.7,3.24,5.91,6.07,8.93,9.06,3.53,3.48,7.06,3.87,9.74,1.12s2.28-5.94-1.15-9.43c-3.24-3.3-6.45-6.64-9.84-9.79-1.78-1.66-2.07-2.77-.1-4.56,3.42-3.11,6.61-6.47,9.85-9.78,3.58-3.66,3.92-7,1.08-9.75s-6-2.3-9.47,1.13c-3.13,3.05-6.34,6-9.23,9.31-2.07,2.33-3.47,2.67-5.7.13-3-3.48-6.45-6.63-9.77-9.85s-6.6-3.25-9.16-.56c-2.41,2.53-2.22,5.92.67,8.91,3.3,3.42,6.6,6.86,10.12,10,2.08,1.89,2.32,3.07.08,5.09-3.81,3.44-7.34,7.19-10.88,10.92a5.46,5.46,0,0,0-.91,6.77A5.93,5.93,0,0,0,256.45,326.79Zm-91.87-164.4A6.24,6.24,0,0,0,161,157a5.59,5.59,0,0,0-6.73,1.23c-3.79,3.66-7.55,7.37-11.17,11.19-1.5,1.58-2.49,1.66-4,0-3.35-3.55-6.86-7-10.35-10.38-3.28-3.23-6.47-3.56-9.14-1s-2.47,6.2.73,9.47c3.51,3.58,7,7.15,10.66,10.62,1.32,1.26,1.39,2.07,0,3.37-3.72,3.55-7.34,7.2-10.92,10.89-3,3.08-3.13,6.69-.51,9.19s5.8,2.24,8.86-.69c3.43-3.3,6.91-6.55,10.13-10,1.87-2,3-2.43,5.08-.12,3.14,3.57,6.63,6.83,10,10.14,3,2.92,6.38,3.16,8.9.79,2.76-2.59,2.66-6-.41-9.15-3.49-3.6-7-7.18-10.65-10.62-1.63-1.53-1.53-2.53,0-4,3.55-3.36,6.94-6.89,10.38-10.36A8,8,0,0,0,164.58,162.39Z"/>
            <path fill="#cfced4" d="M319.24,100.34c.07,18.73-14.57,34.14-30.07,37.7a43.79,43.79,0,0,1-9.84,1.28q-70.72-.06-141.44,0c-11.4,0-21.53-3.17-29.82-11-7-6.6-11.38-14.74-12-24.59-.06-1.13.23-2.35-.9-3.18.06-.22.11-.45.15-.67,7.94-1.24,15.94-.49,23.92-.71.79,10.23,7.15,16.17,17.33,16.17H278.2c10.79,0,16.73-5.7,17.1-16.38,5,.07,10,.23,15,.19a55.07,55.07,0,0,1,8.8.7A2.56,2.56,0,0,1,319.24,100.34Z"/>
            <path fill="#353c43" d="M206.73,89a24.13,24.13,0,0,1-16-7.07c-2.71-2.71-2.9-6.53-.55-8.93s5.84-2.25,8.67.09c6.41,5.29,10.89,5.29,17.38,0,2.93-2.4,6.28-2.38,8.61.06s2.25,5.65-.38,8.56C220.37,86.15,213.68,89,206.73,89Z"/>
            <path fill="#373e45" d="M266.52,73.08a48.65,48.65,0,0,1,0,5,5.93,5.93,0,0,1-6.12,5.65c-3.43-.17-5.54-2.18-5.85-5.48a66.22,66.22,0,0,1,0-10.35,5.93,5.93,0,0,1,6.09-5.69,6.06,6.06,0,0,1,5.92,5.9C266.64,69.74,266.53,71.41,266.52,73.08Z"/>
            <path fill="#353c43" d="M160.76,73.3a49.73,49.73,0,0,1-.48,5.56c-.62,3.19-2.75,5-6,4.8-3.4-.17-5.45-2.25-5.66-5.65a90,90,0,0,1,0-10c.18-3.41,2.2-5.56,5.57-5.74s5.59,1.72,6.16,5.11C160.67,69.27,160.63,71.21,160.76,73.3Z"/>
            <path fill="#78899a" d="M207.53,46.72c-3.71,0-5.82-2.11-5.7-5.67a5.82,5.82,0,0,1,5.54-5.79c2.58-.1,6,3.35,6,6S210.53,46.73,207.53,46.72Z"/>
            <path fill="#6aa2dd" d="M210.21,207.12c4.51,0,9-.08,13.51,0a9.57,9.57,0,0,1,9.66,9.47c.16,9,.14,18,0,27-.07,4.27-2.54,7.23-6.4,8.83s-7.33.69-10.27-2.13c-3.15-3-6.3-6.08-9.26-9.29-1.61-1.74-2.9-2.2-5.24-1-16.34,8-29.7,19.61-40.79,34-1.35,1.75-1.39,2.86.22,4.54,8.65,9,10.37,19.7,5.57,30.95-5.06,11.84-14.65,17.54-27.5,17.32-14.84-.25-27.48-13.74-27.33-28.91S125,269.89,140,269.67c1.41,0,3-.38,4.21.1,4.5,1.79,6.25-1.12,8.48-4.12a120.53,120.53,0,0,1,38.69-33.58c4.56-2.55,4.57-2.53.85-6.26-.9-.91-1.86-1.78-2.69-2.76A9,9,0,0,1,188,213c1.58-3.47,4.23-5.81,8.32-5.85C201,207.09,205.59,207.12,210.21,207.12Zm-69,107.48a16.49,16.49,0,0,0,16.64-16.55A17.06,17.06,0,0,0,141,281.36a16.58,16.58,0,0,0-16.44,16.85C124.58,307.7,131.58,314.61,141.18,314.6Zm61.55-95.79c3.52,4.69,15.79,16.63,18.5,18,0-5.35,0-10.57,0-15.78,0-2-1.06-2.29-2.69-2.27C213.48,218.84,208.38,218.81,202.73,218.81Z"/>
            <path fill="#6aa2dd" d="M274,213.49a28.5,28.5,0,0,1-28.8-28.39,29.17,29.17,0,0,1,28.75-28.75c15.54,0,28.93,12.94,28.74,28.69C302.43,202.2,288.65,214,274,213.49Zm-.05-44.94a16.24,16.24,0,0,0-16.55,16.59A16.54,16.54,0,0,0,274,201.79a16.8,16.8,0,0,0,16.62-16.73A16.34,16.34,0,0,0,273.9,168.55Z"/>
            <path fill="#e2e2e2" d="M256.45,326.79a5.93,5.93,0,0,1-5.22-3.24,5.46,5.46,0,0,1,.91-6.77c3.54-3.73,7.07-7.48,10.88-10.92,2.24-2,2-3.2-.08-5.09-3.52-3.19-6.82-6.63-10.12-10-2.89-3-3.08-6.38-.67-8.91,2.56-2.69,6-2.53,9.16.56s6.73,6.37,9.77,9.85c2.23,2.54,3.63,2.2,5.7-.13,2.89-3.27,6.1-6.26,9.23-9.31,3.51-3.43,6.71-3.78,9.47-1.13s2.5,6.09-1.08,9.75c-3.24,3.31-6.43,6.67-9.85,9.78-2,1.79-1.68,2.9.1,4.56,3.39,3.15,6.6,6.49,9.84,9.79,3.43,3.49,3.8,6.71,1.15,9.43s-6.21,2.36-9.74-1.12c-3-3-6.23-5.82-8.93-9.06-2.41-2.89-4-2.35-6.17.14-2.89,3.27-6.12,6.24-9.23,9.31A7.25,7.25,0,0,1,256.45,326.79Z"/>
            <path fill="#e2e2e2" d="M164.58,162.39a8,8,0,0,1-2.65,5.16c-3.44,3.47-6.83,7-10.38,10.36-1.57,1.48-1.67,2.48,0,4,3.64,3.44,7.16,7,10.65,10.62,3.07,3.17,3.17,6.56.41,9.15-2.52,2.37-5.89,2.13-8.9-.79-3.41-3.31-6.9-6.57-10-10.14-2-2.31-3.21-1.91-5.08.12-3.22,3.49-6.7,6.74-10.13,10-3.06,2.93-6.3,3.14-8.86.69s-2.48-6.11.51-9.19c3.58-3.69,7.2-7.34,10.92-10.89,1.37-1.3,1.3-2.11,0-3.37-3.63-3.47-7.15-7-10.66-10.62-3.2-3.27-3.44-6.89-.73-9.47s5.86-2.2,9.14,1c3.49,3.42,7,6.83,10.35,10.38,1.52,1.63,2.51,1.55,4,0,3.62-3.82,7.38-7.53,11.17-11.19A5.59,5.59,0,0,1,161,157,6.24,6.24,0,0,1,164.58,162.39Z"/>
            <path fill="#f7f7f7" d="M141.18,314.6c-9.6,0-16.6-6.9-16.6-16.39A16.58,16.58,0,0,1,141,281.36a17.06,17.06,0,0,1,16.8,16.69A16.49,16.49,0,0,1,141.18,314.6Z"/>
            <path fill="#f7f7f7" d="M202.73,218.81c5.65,0,10.75,0,15.84,0,1.63,0,2.71.28,2.69,2.27-.07,5.21,0,10.43,0,15.78C218.52,235.44,206.25,223.5,202.73,218.81Z"/>
            <path fill="#f7f7f7" d="M273.9,168.55a16.34,16.34,0,0,1,16.67,16.51A16.8,16.8,0,0,1,274,201.79a16.54,16.54,0,0,1-16.6-16.65A16.24,16.24,0,0,1,273.9,168.55Z"/>
        </g>
    </g>
</svg>