<svg xmlns="http://www.w3.org/2000/svg" viewBox="0 0 419.12 419.33"><defs><style>.cls-1{fill:#e2e2e2;}.cls-2{fill:#46758d;}.cls-3{fill:#b7d0df;}.cls-4{fill:#2e5972;}.cls-5{fill:#febf84;}.cls-6{fill:#46758c;}.cls-7{fill:#5fa0fd;}.cls-8{fill:#418be4;}.cls-9{fill:#f6b076;}.cls-10{fill:#cbdeec;}.cls-11{fill:#b8d0df;}.cls-12{fill:#f1a557;}.cls-13{fill:#a2becb;}.cls-14{fill:#e3d7c6;}</style></defs><title>technique</title><g id="Camada_2" data-name="Camada 2"><g id="Camada_2-2" data-name="Camada 2"><circle class="cls-1" cx="213.11" cy="213.32" r="206.02"/></g><g id="Camada_8" data-name="Camada 8"><path class="cls-2" d="M251.68,396a36,36,0,0,1-5,8,6.28,6.28,0,0,1-8.06,2.24c-3.64-1.54-7.33-3-10.88-4.67-2.83-1.36-4.95-1.09-6.8,1.61-1.32,1.94-3,3.66-4.45,5.47h-4c-.17-1.16-1.25-1.26-2-1.61-2.78-1.24-3.62-3.26-2.81-6.15.42-1.53.65-3.12,1-4.68a3.35,3.35,0,0,0-2.27-4.11c-.86-.36-1.73-.68-2.58-1-8.51-3.53-8.56-3.58-15,3.08-2.25,2.32-4.37,1.81-6.81.53s-4.57-2.38-4-5.92c1.42-9.26,1.3-9.28-7.23-13.74-8.21-4.31-8.29-4.38-14.94,2.27-2.56,2.56-4.78,1.94-7.47.42s-4.26-3.26-3.35-6.69c2.39-9,2.36-9.09-5.75-14-19.34-11.81-36.49-26.6-54.63-40.05-7.69-5.69-15.43-11.32-23.05-17.11-2.45-1.86-4.41-1.88-6.64.28-2,1.94-4.28,3.58-6.34,5.46-3.08,2.81-5.87,2.08-8.91-.18s-5.78-4.42-3.79-8.82c1.3-2.9,2.34-5.92,3.65-8.83a3.39,3.39,0,0,0-1.33-4.77c-3.93-2.73-7.83-5.5-11.67-8.36-2.11-1.57-3.83-1.21-5.66.46-2.16,2-4.47,3.78-6.66,5.71-3.31,2.93-6.05,1.22-8.87-.89s-5.38-4.14-3.52-8.2c.72-1.57,1.18-3.27,2-4.76C5.94,263,6.48,259.7,2,256.78c-2.34-1.52-2.49-4.39-1-6.83,3.84-6.5,7.84-12.9,11.77-19.34,2.72,11.28,7.88,20.93,17.83,27.61,6.34,4.25,11.83,9.71,18.72,13.19.7,1.57,2.25,2.2,3.53,3.11,15,10.58,30,21,44.86,31.72C121.57,323.4,144.48,342,170.58,356c9.12,4.88,17.84,10.51,27.47,14.42v-.07c.3.74,1,.79,1.63,1C216.58,380.48,234,388.53,251.68,396Z"/><path class="cls-3" d="M408.8,256.19c-1.57,3.79-1.39,7.92-2.33,11.85a102.14,102.14,0,0,1-10.25,26c-.76,1.36-1.4,2.85-2.85,3.69-9.22,1.4-18.55.19-27.77,1.1-3.41.34-5.88-.24-7.8-3l.09-.61c3.92-4.64,5.8-10.35,7.84-15.88,5.64-15.29,6.86-31.11,4.73-47.21,0-.21,0-.41.06-.61a28,28,0,0,0,5.21-1.76c4-2.26,7.07-1.35,10.66,1.43,7.28,5.63,14.48,11.45,22.41,16.21Z"/><path class="cls-4" d="M408.8,247.41c-7.93-4.76-15.13-10.58-22.41-16.21-3.59-2.78-6.65-3.69-10.66-1.43a28,28,0,0,1-5.21,1.76q-1.2-6-2.41-12c2.42-1,4.8-2.18,7.27-3.06a4.57,4.57,0,0,0,3.29-3.48c2.51-9.26,5.2-18.47,7.82-27.7,6.87,6.85,11.25,15.29,15,24.06a80.9,80.9,0,0,1,6.6,25.62,1.28,1.28,0,0,0,.72,1.27Z"/><path class="cls-5" d="M99.51,87.86c3.79-14.24,8.8-28.1,13.24-42.14,4.15-13.16,8.4-26.29,12.65-39.42C127.21.71,128.18,0,133.94,0L247.62,0c1.33,0,2.65.1,4,.15a4.85,4.85,0,0,1-.78,2.61Q230.3,36,209.85,69.33c-8.77,14.33-17.42,28.73-26.12,43.11C155.54,104.66,127.5,96.32,99.51,87.86Z"/><path class="cls-6" d="M368.11,219.53q1.22,6,2.41,12c0,.2,0,.4-.06.61-7.38,2.09-14.31,5.41-21.51,8-1.52.55-1.82,1.86-2.23,3.07-2.56,7.5-5,15-7.62,22.54a3.87,3.87,0,0,0,.45,4c6.15,8.45,12.23,16.95,18.34,25.43l-.09.61c-2.49,3.31-3.81,7.51-7.52,9.88-6.6-9.13-13.24-18.23-19.75-27.41a5.93,5.93,0,0,0-5.52-3c-8.62.17-17.25.11-25.87,0a4.63,4.63,0,0,0-4.34,2.09q-9.35,13.37-18.89,26.6a5.36,5.36,0,0,0-.61,5.54c2.18,6,4.26,12,6.16,18.06,1.18,3.75,3.15,7.28,3.33,11.33-18.93-6.09-34.94-16.51-47.48-32.06a45.42,45.42,0,0,1-5.86-8.48c9.84,0,19.68.05,29.5.75a4.94,4.94,0,0,0,5-2.28c6.13-8.86,12.39-17.61,18.69-26.34a5.37,5.37,0,0,0,.75-5.53c-2.56-7.12-5-14.29-7.27-21.51a5.75,5.75,0,0,0-3.86-4.05c-9.43-3.58-18.84-7.22-28.2-11a4.47,4.47,0,0,0-5,.66c-8.16,6.18-16.41,12.24-24.62,18.35-1.07-7.7.39-15.19,2-22.62,3.14-14.45,9.77-27.29,18.75-39,2.1.74,1.76,2.84,2.23,4.35,2.28,7.48,4.4,15,6.5,22.54a4.76,4.76,0,0,0,3.15,3.67q14.52,5.47,28.91,11.25a4.14,4.14,0,0,0,4.41-.53q10.59-7.44,21.26-14.76a5,5,0,0,0,2.45-4.59c-.11-9.69-.05-19.39-.05-29.09,0-1.32.08-2.59-1.29-3.5-8.91-6-17.36-12.63-26.62-18.08,2.54-2.6,6.08-2.82,9.26-3.82,2.38-.74,4.88-1.06,7.33-1.58,5.31,2.33,11.23,2.84,16.43,5.49,6.42,3.27,13.49,5.42,18.7,10.79-3,2.18-5.95,4.44-9,6.51a4.48,4.48,0,0,0-2.3,4.2q.15,14.55,0,29.09a4.56,4.56,0,0,0,2.13,4.32c7.25,4.92,14.44,9.93,21.62,15,1.25.87,2.38,1.52,4,.85,7-2.88,14-5.69,21-8.52Z"/><path class="cls-7" d="M198.05,370.42c-9.63-3.91-18.35-9.54-27.47-14.42-26.1-14-49-32.6-72.94-49.76-14.88-10.68-29.91-21.14-44.86-31.72-1.28-.91-2.83-1.54-3.53-3.11a53.26,53.26,0,0,0,6-19.67c1.72-21.41-7.16-39-20.15-55,9.38-9.3,20.92-15.39,32.33-21.66,1.93-1.06,3.83-.57,5.46,1a14.1,14.1,0,0,1,4.73,9.38c.32,4.77.59,9.54.71,14.32.33,12.73,7.5,21.23,20,23.61,5.33,1,10.65,2.14,16,3.21A41.12,41.12,0,0,0,116.1,231Q128,252.58,140,274.09c11.17,20,22.28,40.05,33.6,60,4.76,8.37,9,17,15.72,24.26C192.67,361.91,196.53,365.42,198.05,370.42ZM128.7,263.18c.34-10.58-7.83-23.18-23.55-23.55-12.41-.3-23.45,11-23.5,23.41a23.6,23.6,0,0,0,23.56,23.57A23.15,23.15,0,0,0,128.7,263.18Z"/><path class="cls-8" d="M198.05,370.42c-1.52-5-5.38-8.51-8.69-12.09-6.69-7.24-11-15.89-15.72-24.26-11.32-19.93-22.43-40-33.6-60Q128,252.58,116.1,231a41.12,41.12,0,0,1-1.84-4.37l-.08-.23.37.11c9.81,2.29,9.81,2.29,14-6.77,8.55-18.67,23.7-27.58,43.84-25.78,1.17.11,2.48-.1,2.72,1.58q-9.24,18.87-18.49,37.75c-.5,1-1.31,2-.12,3.19,3.95,4,5.95,9.33,9,13.94-4.2.6-8.5-.44-12.66,1-3.12,1.08-4.5,3.23-4.13,6.39s2.31,5.24,5.43,5.45a67.08,67.08,0,0,0,18.13-1.53c1.28,2.39,2.57,4.77,3.85,7.15a105.55,105.55,0,0,1-10.66,1,5.83,5.83,0,0,0-5.67,6.35c.16,3.57,2.05,5.57,5.86,5.53,5.81-.05,11.67.57,17.4-.93a45.16,45.16,0,0,1,4.82,8.08c-3.41.27-6.83.58-10.24.81-3.69.26-6.55,3-6.48,6.18.08,3.42,2.71,5.84,6.7,5.83,5.67,0,11.37.33,17-.92l5.18,8.71c-3.67.59-7.42-.28-11.09.72-3.89,1.06-6,3.33-5.58,6.48.43,3.54,3,5.83,6.87,5.7,5.56-.18,11.1-.63,16.65-1q21.63,26.71,43.25,53.43,8.55,10.56,1.61,21.16c-17.69-7.48-35.1-15.53-52-24.67-.24-.83-.87-1-1.63-1Z"/><path class="cls-9" d="M183.73,112.44c8.7-14.38,17.35-28.78,26.12-43.11q20.4-33.33,41-66.57A4.85,4.85,0,0,0,251.6.15C262.9.1,274.19,0,285.49,0c4.66,0,6.76,4.27,4.2,8.52C283.88,18.22,277.9,27.79,272,37.41q-25,40.74-50,81.48c-.9,1.46-2,2.83-2.94,4.23-11.38-3.53-22.73-7.19-34.35-9.88Z"/><path class="cls-10" d="M216.43,247.49c8.21-6.11,16.46-12.17,24.62-18.35a4.47,4.47,0,0,1,5-.66c9.36,3.78,18.77,7.42,28.2,11a5.75,5.75,0,0,1,3.86,4.05c2.27,7.22,4.71,14.39,7.27,21.51a5.37,5.37,0,0,1-.75,5.53c-6.3,8.73-12.56,17.48-18.69,26.34a4.94,4.94,0,0,1-5,2.28c-9.82-.7-19.66-.77-29.5-.75a92,92,0,0,1-14.31-37.89A112.19,112.19,0,0,1,216.43,247.49Z"/><path class="cls-10" d="M278.14,157.17c9.26,5.45,17.71,12.1,26.62,18.08,1.37.91,1.29,2.18,1.29,3.5,0,9.7-.06,19.4.05,29.09a5,5,0,0,1-2.45,4.59q-10.68,7.31-21.26,14.76a4.14,4.14,0,0,1-4.41.53q-14.4-5.76-28.91-11.25a4.76,4.76,0,0,1-3.15-3.67c-2.1-7.54-4.22-15.06-6.5-22.54-.47-1.51-.13-3.61-2.23-4.35A103,103,0,0,1,273.9,158,9.36,9.36,0,0,1,278.14,157.17Z"/><path class="cls-10" d="M284.79,339c-.18-4.05-2.15-7.58-3.33-11.33-1.9-6.07-4-12.09-6.16-18.06a5.36,5.36,0,0,1,.61-5.54q9.54-13.23,18.89-26.6a4.63,4.63,0,0,1,4.34-2.09c8.62.08,17.25.14,25.87,0a5.93,5.93,0,0,1,5.52,3c6.51,9.18,13.15,18.28,19.74,27.41a7.83,7.83,0,0,1-1.33,3.94c-3,.53-3.86,3.35-5.71,5.14-12.7,12.24-27.46,20.86-44.67,25.08-1,.25-2.19.16-2.27,1.66Z"/><path class="cls-10" d="M175.07,195.55c-.24-1.68-1.55-1.47-2.72-1.58-20.14-1.8-35.29,7.11-43.84,25.78-4.15,9.06-4.15,9.06-14,6.77l-.37-.11c1.34-5.41,5.07-9.52,7.86-14.11,14.47-23.83,29.16-47.52,43.77-71.27a5.28,5.28,0,0,0,1.09-3.72l1.68.74L203,148.64c-.77,4.34-3.77,7.54-5.9,11.13C189.93,171.8,182.44,183.64,175.07,195.55Z"/><path class="cls-11" d="M168.58,138.05l-1.68-.74c-9.4-2.75-18.82-5.44-28.2-8.25C123.85,124.61,109,120,94.16,115.65c-3-.88-3.64-2-2.57-5C93.92,104.2,95.85,97.57,98,91c.36-1.11.46-2.38,1.54-3.15,28,8.46,56,16.8,84.22,24.58l1,.8a3.81,3.81,0,0,0-3.15,2.08c-3.77,6.15-7.55,12.29-11.26,18.48C169.53,135.1,168.21,136.25,168.58,138.05Z"/><path class="cls-12" d="M35.08,196.77c13,16,21.87,33.56,20.15,55a53.26,53.26,0,0,1-6,19.67c-6.89-3.48-12.38-8.94-18.72-13.19-10-6.68-15.11-16.33-17.83-27.61A241.67,241.67,0,0,1,33.29,198.3,12.12,12.12,0,0,1,35.08,196.77Z"/><path class="cls-3" d="M368.11,219.53l-.81-.08a5.19,5.19,0,0,0-.06-1.19c-5.69-18-15.47-33.24-30-45.47-1.9-1.59-4.92-2.41-5.17-5.6,4.52-4,10.14-6.56,14.51-10.79,15.86,6.08,29.43,15.33,39.87,28.89-2.62,9.23-5.31,18.44-7.82,27.7a4.57,4.57,0,0,1-3.29,3.48C372.91,217.35,370.53,218.49,368.11,219.53Z"/><path class="cls-4" d="M348.94,309.66a7.83,7.83,0,0,0,1.33-3.94c3.72-2.37,5-6.57,7.53-9.88,1.92,2.78,4.39,3.36,7.8,3,9.22-.91,18.55.3,27.77-1.1-.57,3.6-3.24,5.94-5.33,8.56a94.7,94.7,0,0,1-44.78,31.54,10.74,10.74,0,0,1-3.09.58c-.53-1.95.6-3.57,1.14-5.28C343.8,325.31,346.39,317.49,348.94,309.66Z"/><path class="cls-13" d="M168.58,138.05c-.37-1.8.95-3,1.73-4.25,3.71-6.19,7.49-12.33,11.26-18.48a3.81,3.81,0,0,1,3.15-2.08c11.62,2.69,23,6.35,34.35,9.88-4.36,8.57-9.86,16.45-14.78,24.69-.23.39-.85.55-1.29.83Z"/><path class="cls-3" d="M348.94,309.66c-2.55,7.83-5.14,15.65-7.63,23.5-.54,1.71-1.67,3.33-1.14,5.28l.05-.05c-.52-.08-.6.28-.67.66-14.24,4-28.64,5.16-43.26,2.49.08-1.5,1.25-1.41,2.27-1.66,17.21-4.22,32-12.84,44.67-25.08C345.08,313,346,310.19,348.94,309.66Z"/><path class="cls-4" d="M346.62,156.4c-4.37,4.23-10,6.78-14.52,10.79l-2.24.86c-5.21-5.37-12.28-7.52-18.7-10.79-5.2-2.65-11.12-3.16-16.43-5.49,13.65-3,27.23-2.22,40.72.95A51.5,51.5,0,0,1,346.62,156.4Z"/><path class="cls-2" d="M172.23,261.72a67.08,67.08,0,0,1-18.13,1.53C151,263,149,261,148.67,257.8s1-5.31,4.13-6.39c4.16-1.42,8.46-.38,12.66-1l2.76,0c2.74,0,4.87,1,6.09,3.55C175.81,257.12,174.38,259.52,172.23,261.72Z"/><path class="cls-2" d="M206.82,321.42c-5.55.34-11.09.79-16.65,1-3.9.13-6.44-2.16-6.87-5.7-.38-3.15,1.69-5.42,5.58-6.48,3.67-1,7.42-.13,11.09-.72.92,0,1.84.07,2.75,0,2.73-.09,5,.78,6.18,3.34a6,6,0,0,1-1.3,7.24A5.23,5.23,0,0,0,206.82,321.42Z"/><path class="cls-2" d="M194.79,300.78c-5.61,1.25-11.31.91-17,.92-4,0-6.62-2.41-6.7-5.83-.07-3.22,2.79-5.92,6.48-6.18,3.41-.23,6.83-.54,10.24-.81A9.37,9.37,0,0,0,189,289c3.33-.22,6.47.26,8,3.64C198.45,295.78,196.9,298.42,194.79,300.78Z"/><path class="cls-2" d="M183,280.8c-5.73,1.5-11.59.88-17.4.93-3.81,0-5.7-2-5.86-5.53a5.83,5.83,0,0,1,5.67-6.35,105.55,105.55,0,0,0,10.66-1,8.4,8.4,0,0,0,1.57.18c3.24-.22,6.08.43,7.65,3.65S185.12,278.47,183,280.8Z"/><path class="cls-4" d="M339.55,339.05c.07-.38.15-.74.67-.66Z"/><path class="cls-7" d="M198.05,370.35c.76,0,1.39.16,1.63,1C199.06,371.14,198.35,371.09,198.05,370.35Z"/><path class="cls-10" d="M357.89,295.23c-6.11-8.48-12.19-17-18.34-25.43a3.87,3.87,0,0,1-.45-4c2.6-7.49,5.06-15,7.62-22.54.41-1.21.71-2.52,2.23-3.07,7.2-2.61,14.13-5.93,21.51-8,2.13,16.1.91,31.92-4.73,47.21C363.69,284.88,361.81,290.59,357.89,295.23Z"/><path class="cls-10" d="M329.86,168.05l2.24-.86c.26,3.19,3.28,4,5.18,5.6,14.49,12.23,24.27,27.48,30,45.47a5.19,5.19,0,0,1,.06,1.19c-7,2.83-14,5.64-21,8.52-1.63.67-2.76,0-4-.85-7.18-5-14.37-10-21.62-15a4.56,4.56,0,0,1-2.13-4.32q.12-14.53,0-29.09a4.48,4.48,0,0,1,2.3-4.2C323.91,172.49,326.86,170.23,329.86,168.05Z"/><path class="cls-14" d="M128.7,263.18a23.15,23.15,0,0,1-23.49,23.43A23.6,23.6,0,0,1,81.65,263c0-12.42,11.09-23.71,23.5-23.41C120.87,240,129,252.6,128.7,263.18Z"/></g></g></svg>